<?xml version="1.0" encoding="utf-8"?>
<!-- Generator: Adobe Illustrator 28.1.0, SVG Export Plug-In . SVG Version: 6.00 Build 0)  -->
<svg version="1.1" id="Layer_1" xmlns="http://www.w3.org/2000/svg" xmlns:xlink="http://www.w3.org/1999/xlink" x="0px" y="0px"
	 viewBox="0 0 32 32" style="enable-background:new 0 0 32 32;" xml:space="preserve">
<style type="text/css">
	.st0{fill:#FFFFFF;}
</style>
<g>
	<path class="st0" d="M4.3,26.7c0,0.1-0.1,0.1-0.1,0.2C4.1,27,4.1,27.1,4,27.2c-0.1,0.1-0.1,0.1-0.2,0c-0.2-0.1-0.4-0.3-0.6-0.4
		c-0.1-0.1-0.2,0-0.2,0.1c0,0,0,0,0,0c0.2,0.2,0.5,0.3,0.7,0.5c0.1,0.1,0.2,0.1,0.3,0c0.1-0.1,0.2-0.3,0.3-0.4
		c0.1,0.2,0.3,0.3,0.4,0.5c0.1,0.2,0.2,0.5,0.2,0.8C5,29.1,5,29.9,5.1,30.7c0,0.1,0,0.1,0.1,0.2c0,0,0,0,0,0c0-0.1,0-0.1,0-0.2
		c0-0.3,0-0.6-0.1-1c0-0.4-0.1-0.8-0.1-1.2c0-0.4,0-0.8-0.2-1.2c0,0,0,0,0.1,0c0.3-0.1,0.5-0.1,0.8-0.2c0.1,0,0.1,0,0.2-0.1
		C6,27,6.1,26.8,6.2,26.7c-0.1-0.1-0.1-0.1-0.2,0C5.9,27,5.6,27,5.3,27.1c-0.1,0-0.1,0.1-0.2,0.1c-0.1,0-0.1,0-0.2,0
		c-0.1,0-0.1,0-0.2,0C4.6,27,4.4,26.9,4.3,26.7C4.3,26.7,4.3,26.7,4.3,26.7c0,0,0-0.1,0-0.1c0.1-0.1,0.3-0.2,0.4-0.4
		C4.8,26.1,4.9,26,5,25.9c0,0,0-0.1,0-0.1c0,0-0.1,0-0.1,0c-0.1,0.1-0.1,0.1-0.2,0.2c-0.1,0.1-0.1,0.1-0.2,0.2
		c0-0.1-0.1-0.2-0.1-0.4c0,0,0-0.1,0-0.2c0-0.1,0-0.2,0-0.2c0,0-0.2,0-0.3,0c-0.1,0-0.1,0.1-0.1,0.1c-0.1-0.1-0.2-0.2-0.3-0.2
		c0.2-0.1,0.3-0.4,0.5-0.4c0.1,0.2,0.2,0.4,0.4,0.5c0.1,0.1,0.3,0.2,0.5,0.3c0.1,0.1,0.3,0.1,0.4,0.2c0.2,0.1,0.3,0.2,0.3,0.4
		c0,0.2-0.1,0.3-0.3,0.3c-0.2,0.1-0.3,0-0.5-0.2C5,26.4,5,26.3,4.9,26.3c0,0-0.1-0.1-0.2-0.1c0,0.1,0,0.1,0,0.2
		c0,0.1,0.1,0.2,0.2,0.2C5,26.7,5,26.7,5,26.8c0,0,0,0,0,0c-0.2-0.1-0.4-0.1-0.6-0.2c0,0.1,0.1,0.2,0.2,0.2c0.1,0,0.2,0.1,0.4,0.1
		c0.1,0,0.2,0,0.2,0c0.1-0.1,0.2-0.1,0.3-0.1c0.3,0,0.5-0.1,0.6-0.5c0-0.1,0-0.2,0-0.3c0.3-0.1,0.4-0.3,0.5-0.6c0,0.1,0,0.3,0,0.4
		c-0.1,0.6-0.2,1.2-0.3,1.7c-0.3,1.1-0.2,2.2-0.2,3.3c0,0,0,0,0,0c0.1,0,0.1,0,0.2,0c0-0.3,0-0.5,0-0.8c0-0.4,0-0.8,0-1.1
		c0.1-0.5,0.1-1.1,0.3-1.6c0.2-0.5,0.4-1,0.4-1.5c0-0.2,0.1-0.4,0.2-0.6c0.2,0.4,0.4,0.9,0.7,1.3c0.1,0.2,0.2,0.5,0.1,0.7
		c0,0.1,0,0.2-0.1,0.2c-0.2,0.8-0.5,1.5-0.5,2.4c0,0.3-0.1,0.7-0.2,1c0,0,0,0,0.1,0c0,0,0.1-0.1,0.1-0.1c0-0.1,0-0.1,0-0.2
		c0.1-0.6,0.2-1.2,0.3-1.9c0.1-0.6,0.3-1.1,0.5-1.7C8,27,8,26.9,8,26.8c-0.1,0-0.1-0.1-0.1-0.1c-0.2-0.5-0.5-0.9-0.7-1.4
		c-0.3-0.7-0.5-1.4-0.7-2.1c-0.3-0.8-0.6-1.6-0.8-2.4c-0.4-1.1-0.5-2.3-0.7-3.4c0-0.1,0-0.2,0-0.3c0-0.3,0-0.6,0-0.9
		c0-0.7,0-1.4,0.2-2.1c0.1-0.4,0.2-0.7,0.3-1.1c0.1-0.3,0.3-0.6,0.5-0.9c0.3-0.6,0.6-1.3,0.9-1.9c0,0,0,0,0.1-0.1
		c0.3,0.3,0.7,0.4,1.1,0.6c0.4,0.2,0.9,0.4,1.2,0.8c0.3,0.3,0.5,0.5,0.7,0.8c0.1,0.1,0.2,0.2,0.1,0.3c0,0,0,0.1,0,0.1
		c0.1,0.1,0.2,0.2,0.3,0.3c0.1,0.1,0.1,0.1,0.2,0.2c0,0,0,0,0,0c-0.2-0.1-0.4-0.1-0.6-0.2c-0.4-0.3-0.9-0.3-1.4-0.3
		c-0.4,0-0.7,0.1-1,0.4C6.8,13.5,6.3,14.2,6,15c-0.2,0.5-0.3,1-0.1,1.6c0.2,0.6,0.4,1.1,0.7,1.7c0.1,0.2,0.2,0.4,0.3,0.6
		c-0.1,0-0.1,0.1-0.1,0.2c0.1,0.7,0.2,1.5,0.3,2.2c0.2,1,0.3,2,0.5,3c0,0.3,0.1,0.5,0.1,0.8c0,0,0,0,0,0c0.1-0.1,0.1-0.3,0.1-0.4
		c-0.1-0.8-0.2-1.7-0.4-2.5c-0.2-1-0.3-2.1-0.5-3.1c0,0,0,0,0,0c0.1,0.2,0.2,0.4,0.3,0.6c0.3,0.5,0.6,1,0.8,1.6
		c0,0.1,0.1,0.2,0.1,0.3c0.4,0.7,0.8,1.4,1.2,2.1c0.3,0.6,0.6,1,1.1,1.4c0.1,0.1,0.2,0.2,0.4,0.3c-0.3,0.1-0.5,0.2-0.7,0.1
		c-0.1,0-0.2,0-0.2,0.1c0,0.1,0,0.1,0,0.2c0,0.4,0,0.9,0,1.3c0,0.2,0.1,0.3,0.3,0.2c0.1,0,0.2,0,0.3-0.1c0.7-0.1,1.3-0.3,2-0.3
		c0.2,0,0.4,0,0.6,0c0,0,0.1,0,0.2,0c0.5,0.2,1,0.4,1.5,0.7c0.1,0,0.1,0.1,0.1,0.2c0,0.3,0,0.6,0,1c0,0.7,0.1,1.3,0,2
		c0,0.1,0,0.1,0,0.2c0,0,0,0,0,0c0,0,0.1-0.1,0.1-0.1c0-0.2,0.1-0.4,0.1-0.6c0-0.8-0.1-1.6-0.1-2.4c0,0,0-0.1,0-0.1c0,0,0.1,0,0.1,0
		c0.6,0.2,1.3,0.3,1.9,0.5c0.4,0.1,0.9,0.1,1.3,0.1c0.1,0,0.2-0.1,0.3-0.2c0.1-0.3,0.3-0.5,0.4-0.8c0.5,0.4,1,0.5,1.5,0.1
		c0,0.2,0,0.2-0.1,0.2c-0.1,0-0.1,0-0.1,0.1c0.2,0.5,0.4,1,0.6,1.5c0.3,0.5,0.4,0.9,0.5,1.5c0,0,0,0.1,0,0.1c0,0,0.1,0,0.1,0
		c0,0,0-0.1,0-0.1c-0.1-0.4-0.2-0.7-0.3-1.1c-0.1-0.4-0.3-0.7-0.5-1c-0.1-0.3-0.2-0.6-0.4-0.9c0.3-0.1,0.3-0.2,0.2-0.5
		c0-0.1,0-0.2,0.1-0.2c0.1,0.1,0.1,0.1,0.1,0.2c0.1,0.2,0.2,0.2,0.3,0.1c0.1-0.1,0.2-0.2,0.2-0.3c0.1-0.2,0.1-0.3,0.1-0.5
		c0,0,0-0.1,0-0.1c0-0.3,0-0.7-0.1-1c0-0.2-0.1-0.4-0.2-0.5c-0.2-0.2-0.3-0.4-0.4-0.7c0-0.2-0.2-0.3-0.3-0.3c0,0-0.1,0-0.1-0.1
		c0-0.1-0.1-0.2-0.2-0.2c-0.2-0.1-0.3-0.1-0.5-0.2c0.1-0.7,0.2-1.3,0.3-2c0.2-0.9,0.3-1.8,0.4-2.8c0.1-0.7,0-1.4,0-2
		c-0.1-0.8-0.2-1.5-0.7-2.1c-0.2-0.3-0.4-0.6-0.4-1c0-0.2-0.1-0.5-0.1-0.7c0,0,0-0.1,0-0.1c0.2,0.1,0.4,0.2,0.6,0.4
		c0,0.1,0.1,0.1,0.2,0.1c0.3,0.1,0.5-0.1,0.7-0.2c0.5-0.2,0.9-0.6,1-1.2c0.2,0.2,0.4,0.5,0.4,0.8c0.1,0.6,0.2,1.2,0.3,1.8
		c0,1.3-0.1,2.6-0.3,3.9c-0.1,0.5-0.2,1-0.2,1.5c0,0.6,0,1.1,0,1.7c0,0.9,0.1,1.7,0.1,2.6c0,0.3,0,0.6,0,0.8
		c0.1,0.9,0.2,1.8,0.2,2.7c-0.1,1.1,0.2,2.1,0.3,3.1c0,0.1,0.1,0.1,0.2,0.1c0,0,0-0.1,0-0.1c-0.1-0.5-0.2-1-0.2-1.5
		c-0.1-0.4-0.1-0.9-0.1-1.3c0.1-0.9,0-1.7-0.1-2.6c0-0.2-0.1-0.5-0.1-0.7c0-0.9,0-1.8-0.1-2.7c0-0.6-0.1-1.2,0-1.8
		c0-0.6,0.1-1.2,0.2-1.8c0.1-0.7,0.2-1.4,0.3-2.1c0.1-1.1,0-2.3-0.2-3.4c-0.1-0.4-0.2-0.8-0.6-1.1c0,0,0,0,0-0.1
		c-0.2-0.3-0.3-0.6-0.5-0.9c0,0,0.1,0,0.1-0.1c0.2-0.3,0.4-0.3,0.7-0.2c0.6,0.2,1.1,0.3,1.6,0.6c0.4,0.3,0.8,0.6,1.2,1
		c1,1.3,2,2.5,3,3.8c0.4,0.5,0.7,1,1.1,1.5c0,0,0.1,0.1,0.1,0.1c-0.1,0-0.1,0.1-0.2,0.1c-0.4,0.3-0.7,0.6-1.1,0.9
		c-0.1,0.1-0.1,0.1,0,0.2c0.4-0.4,0.8-0.7,1.3-1.1c0.2,0.2,0.3,0.4,0.4,0.6c0.3,0.5,0.6,0.8,1,1.3c0.1,0,0.1-0.1,0.1-0.2
		c0-0.1-0.1-0.1-0.1-0.2c-0.2-0.2-0.3-0.4-0.5-0.6c-0.2-0.3-0.4-0.6-0.7-0.9c0-0.1-0.1-0.1-0.1-0.2c0-0.1-0.1-0.1-0.1-0.1
		c-0.5-0.7-1.1-1.5-1.6-2.2c-0.5-0.6-0.9-1.2-1.4-1.8c-0.4-0.5-0.8-0.9-1.2-1.4c-0.1-0.1-0.2-0.2-0.3-0.3c-0.4-0.3-0.8-0.6-1.2-0.9
		c-0.4-0.2-0.8-0.4-1.2-0.4c-0.1,0-0.2-0.1-0.4-0.1c0.4-0.4,0.6-0.8,0.7-1.3c0.1-0.9-0.2-1.7-0.8-2.4c-0.2-0.2-0.4-0.3-0.7-0.3
		c-0.1,0-0.2,0-0.2,0c-0.2,0-0.3,0-0.4-0.2c-0.1-0.1-0.2-0.2-0.3-0.3c-0.6-0.4-1.2-0.4-1.8-0.3c-0.3,0-0.5,0.1-0.6,0.4
		c0,0-0.1,0.1-0.1,0.1c-0.5,0.3-1,0.6-1.2,1.2c0,0.1-0.1,0.2-0.1,0.3c-0.1,0.2-0.2,0.4-0.4,0.5c-0.2,0.2-0.5,0.3-0.8,0.4
		c0-0.3,0-0.7-0.1-1c0-0.1,0-0.2,0.1-0.3c0.1-0.1,0.2-0.3,0.2-0.4c0-0.4,0.1-0.8,0.1-1.2c0-0.1,0.1-0.1,0.1-0.2
		c0.2,0,0.4-0.1,0.6-0.2c0.3-0.1,0.4-0.3,0.5-0.6c0.1-0.4,0-0.8-0.3-1.1c-0.2-0.2-0.3-0.5-0.5-0.7c-0.2-0.3-0.4-0.4-0.7-0.2
		c-0.1,0-0.2,0-0.3-0.1c-0.2-0.2-0.4-0.4-0.5-0.7c-0.1-0.1-0.1-0.2-0.2-0.2c-0.3-0.3-0.9-0.3-1.2,0c-0.2,0.2-0.4,0.1-0.5,0.2
		c-0.1,0-0.2-0.1-0.3-0.2c-0.2-0.2-0.4-0.4-0.7-0.4c-0.4,0-0.7,0-1.1,0c-0.4,0-0.7,0.2-1,0.4C9,1.7,8.8,2,8.9,2.5c0,0.1,0,0.2,0,0.3
		c0,0.1,0,0.2-0.1,0.3C8.7,3.2,8.6,3.3,8.4,3.5C8.3,3.6,8.2,3.8,8.2,3.9c-0.1,0.3,0,0.6,0.2,0.9C8.5,5,8.6,5.2,8.6,5.4
		c0,0.2,0,0.4,0,0.5c0,0.5-0.2,1.1-0.1,1.7c0,0.2,0,0.4-0.1,0.5C8.1,8,8,8.1,7.9,8.3c0,0.1-0.1,0.1-0.1,0.2C7.6,8.6,7.5,8.7,7.4,8.9
		C7.3,8.8,7.3,8.8,7.2,8.8C7,9,6.8,9.5,6.7,9.8c0,0.1,0,0.1,0,0.2c-0.5,0.9-0.9,1.8-1.4,2.8c-0.1,0.2-0.2,0.3-0.2,0.5
		c-0.2,0.7-0.2,1.3-0.3,2c0,0.4,0,0.9,0,1.3c0,0.2,0,0.4,0,0.6c0.1,0.5,0.2,1,0.3,1.5c0.1,0.4,0.2,0.8,0.2,1.1c0,0,0,0.1,0,0.2
		c-0.2-0.4-0.5-0.4-0.8-0.1C4.4,20,4.2,20,4.1,20.1c-0.2,0-0.3,0.1-0.4,0.3c0,0.1-0.1,0.1-0.1,0.2c-0.1-0.1-0.1-0.1-0.1-0.2
		c-0.1-0.1-0.3-0.2-0.4-0.3C3,20,2.9,19.9,2.9,19.8c-0.1-0.1-0.2-0.2-0.3-0.2c-0.1,0-0.1,0.1-0.2,0.1c0,0.1,0.1,0.1,0.1,0.2
		c0,0,0.1,0.1,0.1,0.1c0,0.2,0.1,0.2,0.2,0.3c0,0.1,0.1,0.2,0.1,0.2c0.2,0,0.2,0.2,0.4,0.3c-0.1,0.1-0.1,0.2-0.2,0.3
		c-0.1-0.1-0.2-0.3-0.4-0.4c0,0-0.1-0.1-0.1-0.1c-0.1,0.1-0.2,0-0.3-0.1c-0.1,0-0.1-0.1-0.2-0.1c-0.1,0-0.2,0-0.2-0.1
		c-0.1-0.1-0.2-0.1-0.3-0.1c-0.1,0-0.2,0.1-0.1,0.2c0.1,0.1,0.1,0.1,0.2,0.1c0,0,0.1,0.1,0.1,0.1c0,0.1,0.1,0.1,0.2,0.1
		c0,0,0.1,0,0.2,0C2.5,21,2.6,21,2.7,21.1c0,0,0.1,0.1,0.1,0.1c0,0,0,0,0,0c-0.1,0-0.2,0-0.2-0.1C2.3,21,2.1,21,1.9,21.1
		c0,0-0.1,0-0.1,0c-0.1,0-0.2,0-0.3,0c0,0.1,0,0.2,0.1,0.2c0.1,0.1,0.1,0.1,0.2,0.2c0.1,0.1,0.2,0.2,0.3,0.3c-0.1,0-0.1,0-0.1,0
		c-0.3,0.1-0.8,0.7-0.7,1.1c0,0.2,0,0.3,0,0.5c-0.1,0.2,0,0.4,0.2,0.5C1.6,24,1.7,24,1.9,24.1c0.1,0,0.1,0.1,0.2,0.2
		c0,0.1,0,0.1-0.1,0.2c-0.1,0.1-0.2,0.2-0.3,0.3c-0.2,0.2-0.2,0.4,0.1,0.5c0,0.1-0.1,0.1-0.1,0.2c0,0.1-0.1,0.2,0,0.2
		c0.1,0.1,0.2,0.2,0.2,0.3c0,0.1,0,0.2,0.2,0.2c0.1,0,0.2,0,0.3,0.1c0,0-0.1,0.1-0.1,0.1c-0.1-0.1-0.2-0.2-0.3,0c0,0,0,0.1-0.1,0.2
		c0,0.1,0,0.1,0,0.2c0,0.1,0,0.1,0,0.2c-0.1,0.2-0.1,0.5,0,0.7C2,27.5,2,27.4,2.1,27.3c0.1-0.1,0-0.3,0.2-0.4c0,0,0-0.1,0.1-0.1
		c0-0.1,0-0.1,0-0.2c0.1,0.2,0.3,0.3,0.5,0.3c0.2,0,0.4,0.1,0.6,0.2c0,0,0.1,0,0.2,0C3.9,26.9,4.1,26.8,4.3,26.7z M26.8,17.9
		C26.8,17.9,26.8,17.9,26.8,17.9c-0.1,0.1-0.1,0.2-0.1,0.2c0.2,0.9,0.4,1.8,0.6,2.6c0.4,1.2,0.6,2.5,0.7,3.7c0.1,0.5,0.2,1,0.2,1.6
		c0.1,0.4,0.2,0.7,0.2,1.1c0.1,0.6,0.1,1.2,0.1,1.8c0,0.3,0,0.7,0,1c-0.1-0.2-0.1-0.4-0.1-0.5c-0.1-0.5-0.3-1-0.4-1.6
		c-0.2-0.8-0.3-1.7-0.4-2.5c-0.1-0.3-0.1-0.6-0.2-0.8c0,0-0.1-0.1-0.1-0.1c0,0,0,0.1,0,0.1c0,0,0,0.1,0,0.1c0.1,0.7,0.2,1.3,0.4,2
		c0.1,0.6,0.2,1.2,0.3,1.7c0.2,0.8,0.4,1.6,0.5,2.4c0,0.2,0,0.2,0.3,0.1c0,0,0-0.1,0-0.1c0-1.3-0.1-2.5-0.1-3.8
		c0-0.2-0.1-0.4-0.1-0.6c-0.1-0.6-0.2-1.3-0.3-1.9c0-0.1,0-0.2,0.1-0.2c0.2-0.1,0.3-0.2,0.5-0.3c0.2-0.2,0.5-0.4,0.7-0.7
		c0.5,1.1,0.9,2.3,1.2,3.5c0-0.1,0-0.2,0-0.3c0-0.2-0.1-0.4-0.1-0.5c-0.4-1.4-0.9-2.7-1.6-4c-0.1-0.2-0.2-0.4-0.3-0.6
		c-0.2-0.6-0.4-1.2-0.7-1.8c-0.4-1.1-0.8-2.1-1.5-3.1c-0.9-1.4-1.6-3-2.3-4.5c0-0.1-0.2-0.2-0.2-0.2c-0.1,0.1,0,0.2,0,0.2
		c0.4,0.8,0.8,1.6,1.2,2.4c0.2,0.5,0.5,1,0.8,1.5c0.9,1.3,1.5,2.8,2.1,4.3c0.3,0.9,0.6,1.7,1,2.5c0.1,0.2,0.1,0.5-0.1,0.7
		c-0.3,0.2-0.6,0.5-0.8,0.7c0,0-0.1,0.1-0.2,0.1c0,0,0-0.1,0-0.1c-0.1-0.6-0.1-1.1-0.3-1.7c-0.2-0.8-0.4-1.5-0.6-2.3
		c-0.2-0.7-0.3-1.3-0.4-2C26.9,18,26.8,17.9,26.8,17.9z M25.3,28.1c0.1,0,0.1,0,0.1-0.1c0-1.2,0-2.5,0-3.7c0-1-0.1-2-0.2-2.9
		c-0.1-0.9-0.1-1.9-0.2-2.8c0-0.4,0-0.9,0-1.3c0,0,0-0.1-0.1-0.1c0,0-0.1,0.1-0.1,0.1c0,0.1,0,0.1,0,0.2c0,0.1,0,0.3,0,0.4
		c0,1.3,0.1,2.6,0.2,3.9c0.1,1,0.2,1.9,0.2,2.9c0,1.1,0,2.2,0.1,3.3C25.3,27.9,25.3,28,25.3,28.1z M5.8,27.3c-0.1,0-0.2,0-0.2,0.1
		c0,0.2,0,0.4,0,0.7c0,0.9,0,1.7,0,2.6c0,0,0,0.1,0,0.1c0,0,0,0,0.1,0.1c0,0,0,0,0.1-0.1c0,0,0,0,0-0.1c0-1.1,0-2.2,0-3.4
		C5.8,27.4,5.8,27.3,5.8,27.3z"/>
	<path d="M4.3,26.7c-0.2,0.1-0.4,0.2-0.5,0.2c0,0-0.1,0-0.2,0c-0.2-0.1-0.4-0.1-0.6-0.2c-0.2,0-0.4-0.1-0.5-0.3c0,0.1,0,0.2,0,0.2
		c0,0.1,0,0.1-0.1,0.1c-0.2,0.1-0.2,0.3-0.2,0.4c0,0.1-0.1,0.2-0.2,0.3c-0.1-0.2,0-0.5,0-0.7c0-0.1,0-0.1,0-0.2c0-0.1,0-0.1,0-0.2
		c0-0.1,0-0.2,0.1-0.2c0.1-0.1,0.2-0.1,0.3,0c0,0,0.1-0.1,0.1-0.1c-0.1-0.1-0.2-0.2-0.3-0.1c-0.1,0-0.1-0.1-0.2-0.2
		c0-0.1-0.1-0.2-0.2-0.3c-0.1-0.1-0.1-0.2,0-0.2c0-0.1,0.1-0.1,0.1-0.2c-0.3-0.1-0.3-0.3-0.1-0.5c0.1-0.1,0.2-0.2,0.3-0.3
		C2,24.4,2,24.3,2,24.2c0-0.1-0.1-0.1-0.2-0.2C1.7,24,1.6,24,1.4,23.9c-0.2-0.1-0.3-0.3-0.2-0.5c0.1-0.2,0.1-0.3,0-0.5
		c-0.1-0.4,0.4-1.1,0.7-1.1c0,0,0.1,0,0.1,0c-0.1-0.1-0.2-0.2-0.3-0.3c-0.1-0.1-0.2-0.1-0.2-0.2c0-0.1-0.1-0.2-0.1-0.2
		c0-0.1,0.2-0.1,0.3,0c0,0,0.1,0,0.1,0c0.3-0.1,0.5,0,0.7,0.1c0.1,0,0.1,0,0.2,0.1c0,0,0,0,0,0c0,0-0.1-0.1-0.1-0.1
		C2.6,21,2.5,21,2.4,20.9c0,0-0.1-0.1-0.2,0c-0.1,0-0.2,0-0.2-0.1c0-0.1-0.1-0.1-0.1-0.1c-0.1,0-0.1-0.1-0.2-0.1
		c-0.1-0.1-0.1-0.2,0.1-0.2c0.1,0,0.2-0.1,0.3,0.1c0,0,0.1,0,0.2,0.1c0.1,0,0.1,0,0.2,0.1c0.1,0.1,0.1,0.2,0.3,0.1
		c0,0,0.1,0,0.1,0.1c0.1,0.1,0.2,0.3,0.4,0.4c0-0.1,0.1-0.2,0.2-0.3c-0.1-0.1-0.2-0.3-0.4-0.3c0,0,0-0.1-0.1-0.2
		c-0.1,0-0.2-0.1-0.2-0.3c0,0-0.1,0-0.1-0.1c-0.1-0.1-0.1-0.1-0.1-0.2c0.1,0,0.1-0.1,0.2-0.1c0.1,0,0.2,0,0.3,0.2
		C2.9,19.9,3,20,3.1,20.1c0.1,0.1,0.3,0.2,0.4,0.3c0,0,0.1,0.1,0.1,0.2c0-0.1,0.1-0.1,0.1-0.2c0.1-0.2,0.2-0.3,0.4-0.3
		c0.1,0,0.2,0,0.3-0.1c0.3-0.3,0.5-0.2,0.8,0.1c0-0.1,0-0.1,0-0.2c-0.1-0.4-0.2-0.8-0.2-1.1c-0.1-0.5-0.2-1-0.3-1.5
		c0-0.2,0-0.4,0-0.6c0-0.4,0-0.9,0-1.3c0-0.7,0.1-1.3,0.3-2c0-0.2,0.1-0.3,0.2-0.5c0.5-0.9,0.9-1.8,1.4-2.8c0-0.1,0-0.1,0-0.2
		c0-0.3,0.3-0.8,0.5-1c0.1,0,0.1,0.1,0.2,0.1c0.1-0.1,0.2-0.3,0.3-0.4c0-0.1,0.1-0.1,0.1-0.2C8,8.1,8.1,8,8.4,8.2
		C8.5,8,8.5,7.8,8.5,7.6C8.4,7.1,8.5,6.5,8.5,6c0-0.2,0-0.4,0-0.5c0-0.2-0.1-0.4-0.2-0.6C8.3,4.6,8.1,4.3,8.2,3.9
		c0-0.2,0.1-0.3,0.2-0.5C8.6,3.3,8.7,3.2,8.8,3c0.1-0.1,0.1-0.2,0.1-0.3c0-0.1,0-0.2,0-0.3C8.8,2,9,1.7,9.3,1.5
		c0.3-0.2,0.7-0.4,1-0.4c0.4,0,0.7,0,1.1,0c0.3,0,0.5,0.2,0.7,0.4c0.1,0.1,0.2,0.2,0.3,0.2c0.2,0,0.4,0,0.5-0.2
		c0.3-0.3,0.9-0.3,1.2,0c0.1,0.1,0.1,0.2,0.2,0.2c0.2,0.2,0.4,0.5,0.5,0.7c0.1,0.1,0.2,0.1,0.3,0.1c0.4-0.1,0.5-0.1,0.7,0.2
		c0.2,0.2,0.3,0.5,0.5,0.7c0.2,0.3,0.3,0.7,0.3,1.1c-0.1,0.3-0.2,0.5-0.5,0.6c-0.2,0.1-0.4,0.1-0.6,0.2c-0.1,0-0.1,0.1-0.1,0.2
		c0,0.4-0.1,0.8-0.1,1.2c0,0.2-0.1,0.3-0.2,0.4c-0.1,0.1-0.1,0.2-0.1,0.3c0.1,0.3,0.2,0.6,0.1,1c0.3-0.1,0.6-0.2,0.8-0.4
		c0.2-0.2,0.3-0.4,0.4-0.5c0.1-0.1,0.1-0.2,0.1-0.3c0.2-0.6,0.6-0.9,1.2-1.2c0,0,0.1,0,0.1-0.1c0.1-0.3,0.4-0.3,0.6-0.4
		c0.6-0.1,1.3-0.1,1.8,0.3c0.1,0.1,0.2,0.2,0.3,0.3c0.1,0.1,0.2,0.2,0.4,0.2c0.1,0,0.2,0,0.2,0c0.3,0,0.5,0.1,0.7,0.3
		c0.6,0.7,0.9,1.5,0.8,2.4c-0.1,0.5-0.2,0.9-0.7,1.3c0.2,0,0.3,0.1,0.4,0.1c0.4,0,0.8,0.2,1.2,0.4c0.4,0.3,0.8,0.6,1.2,0.9
		c0.1,0.1,0.2,0.2,0.3,0.3c0.4,0.5,0.8,0.9,1.2,1.4c0.5,0.6,0.9,1.2,1.4,1.8c0.5,0.7,1.1,1.5,1.6,2.2c0,0.1,0.1,0.1,0.1,0.1
		c0,0.1,0.1,0.2,0.1,0.2c0.2,0.3,0.4,0.6,0.7,0.9c0.2,0.2,0.3,0.4,0.5,0.6c0,0.1,0.1,0.1,0.1,0.2c0.1,0.1,0,0.1-0.1,0.2
		c-0.3-0.4-0.7-0.8-1-1.3c-0.1-0.2-0.3-0.4-0.4-0.6c-0.4,0.4-0.9,0.7-1.3,1.1c-0.1-0.1-0.1-0.1,0-0.2c0.4-0.3,0.7-0.6,1.1-0.9
		c0,0,0.1-0.1,0.2-0.1c0-0.1-0.1-0.1-0.1-0.1c-0.4-0.5-0.7-1-1.1-1.5c-1-1.3-2-2.5-3-3.8c-0.3-0.4-0.8-0.7-1.2-1
		c-0.5-0.4-1-0.5-1.6-0.6c-0.3-0.1-0.5-0.1-0.7,0.2c0,0-0.1,0.1-0.1,0.1c0.2,0.3,0.4,0.6,0.5,0.9c0,0,0,0,0,0.1
		c0.4,0.3,0.5,0.7,0.6,1.1c0.2,1.1,0.3,2.2,0.2,3.4c-0.1,0.7-0.2,1.4-0.3,2.1c-0.1,0.6-0.2,1.2-0.2,1.8c0,0.6,0,1.2,0,1.8
		c0,0.9,0,1.8,0.1,2.7c0,0.2,0.1,0.5,0.1,0.7c0.1,0.9,0.1,1.7,0.1,2.6c0,0.4,0,0.9,0.1,1.3c0.1,0.5,0.2,1,0.2,1.5c0,0,0,0.1,0,0.1
		c-0.1,0-0.2,0-0.2-0.1c-0.2-1-0.4-2.1-0.3-3.1c0-0.9,0-1.8-0.2-2.7c0-0.3,0-0.6,0-0.8c0-0.9-0.1-1.7-0.1-2.6c0-0.6,0-1.1,0-1.7
		c0-0.5,0.1-1,0.2-1.5c0.2-1.3,0.3-2.6,0.3-3.9c0-0.6-0.1-1.2-0.3-1.8c-0.1-0.3-0.2-0.5-0.4-0.8c-0.2,0.6-0.5,0.9-1,1.2
		c-0.2,0.1-0.5,0.3-0.7,0.2c-0.1,0-0.2-0.1-0.2-0.1c-0.1-0.2-0.3-0.3-0.6-0.4c0,0,0,0.1,0,0.1c0,0.2,0,0.5,0.1,0.7
		c0.1,0.4,0.2,0.7,0.4,1c0.4,0.6,0.6,1.3,0.7,2.1c0,0.7,0.1,1.4,0,2c-0.1,0.9-0.2,1.9-0.4,2.8c-0.1,0.7-0.2,1.3-0.3,2
		c0.2,0.1,0.3,0.1,0.5,0.2c0.1,0,0.2,0.1,0.2,0.2c0,0,0.1,0.1,0.1,0.1c0.2,0.1,0.3,0.2,0.3,0.3c0.1,0.2,0.2,0.5,0.4,0.7
		c0.1,0.1,0.2,0.3,0.2,0.5c0.1,0.3,0.1,0.7,0.1,1c0,0,0,0.1,0,0.1c0,0.2-0.1,0.4-0.1,0.5c0,0.1-0.1,0.2-0.2,0.3
		c-0.1,0.1-0.3,0.1-0.3-0.1c0-0.1,0-0.1-0.1-0.2c0,0.1-0.1,0.2-0.1,0.2c0,0.3,0,0.3-0.2,0.5c0.1,0.3,0.2,0.6,0.4,0.9
		c0.2,0.3,0.4,0.7,0.5,1c0.1,0.3,0.2,0.7,0.3,1.1c0,0,0,0.1,0,0.1c0,0-0.1,0-0.1,0c0,0,0-0.1,0-0.1c-0.1-0.5-0.3-1-0.5-1.5
		c-0.3-0.5-0.5-1-0.6-1.5c0-0.1,0-0.1,0.1-0.1c0.2,0,0.2,0,0.1-0.2c-0.5,0.4-1,0.3-1.5-0.1c-0.1,0.3-0.3,0.5-0.4,0.8
		c-0.1,0.1-0.2,0.2-0.3,0.2c-0.5,0-0.9,0-1.3-0.1c-0.6-0.2-1.3-0.3-1.9-0.5c0,0,0,0-0.1,0c0,0.1,0,0.1,0,0.1c0,0.8,0.1,1.6,0.1,2.4
		c0,0.2,0,0.4-0.1,0.6c0,0-0.1,0.1-0.1,0.1c0,0,0,0,0,0c0-0.1,0-0.1,0-0.2c0.1-0.7,0.1-1.3,0-2c0-0.3,0-0.6,0-1c0-0.1,0-0.2-0.1-0.2
		c-0.5-0.2-1-0.5-1.5-0.7c-0.1,0-0.1,0-0.2,0c-0.2,0-0.4,0-0.6,0c-0.7,0-1.4,0.2-2,0.3c-0.1,0-0.2,0-0.3,0.1c-0.2,0-0.3-0.1-0.3-0.2
		c0-0.4,0-0.9,0-1.3c0-0.1,0-0.1,0-0.2c0-0.1,0.1-0.1,0.2-0.1c0.2,0.1,0.5,0,0.7-0.1c-0.1-0.1-0.3-0.2-0.4-0.3
		c-0.5-0.4-0.9-0.9-1.1-1.4c-0.4-0.7-0.8-1.4-1.2-2.1c0-0.1-0.1-0.2-0.1-0.3c-0.2-0.6-0.5-1.1-0.8-1.6C7.2,19.4,7.1,19.2,7,19
		c0,0,0,0,0,0c0.2,1,0.3,2.1,0.5,3.1c0.1,0.8,0.3,1.7,0.4,2.5c0,0.1,0.1,0.3-0.1,0.4c0,0,0,0,0,0c0-0.3-0.1-0.5-0.1-0.8
		c-0.2-1-0.3-2-0.5-3C7,20.5,6.9,19.7,6.8,19c0-0.1,0-0.2,0.1-0.2c-0.1-0.2-0.2-0.4-0.3-0.6c-0.3-0.5-0.6-1.1-0.7-1.7
		C5.7,16,5.8,15.5,6,15c0.3-0.8,0.8-1.5,1.5-2.1c0.3-0.2,0.6-0.3,1-0.4c0.5,0,1,0,1.4,0.3c0.2,0.1,0.4,0.2,0.6,0.2c0,0,0,0,0,0
		c-0.1-0.1-0.1-0.1-0.2-0.2c-0.1-0.1-0.2-0.2-0.3-0.3c0,0,0-0.1,0-0.1c0.1-0.1,0-0.2-0.1-0.3c-0.2-0.3-0.5-0.6-0.7-0.8
		C8.8,11,8.4,10.8,8,10.6c-0.4-0.2-0.8-0.3-1.1-0.6c0,0,0,0-0.1,0.1c-0.3,0.6-0.6,1.3-0.9,1.9c-0.2,0.3-0.3,0.6-0.5,0.9
		c-0.1,0.4-0.2,0.7-0.3,1.1C5,14.6,4.9,15.3,4.9,16c0,0.3,0,0.6,0,0.9c0,0.1,0,0.2,0,0.3c0.2,1.1,0.3,2.3,0.7,3.4
		c0.3,0.8,0.6,1.6,0.8,2.4c0.2,0.7,0.4,1.4,0.7,2.1c0.2,0.5,0.4,1,0.7,1.4c0,0,0.1,0.1,0.1,0.1c0,0.1,0,0.2-0.1,0.3
		c-0.2,0.6-0.3,1.1-0.5,1.7c-0.1,0.6-0.2,1.2-0.3,1.9c0,0.1,0,0.1,0,0.2C7.1,30.9,7,30.9,7,31c0,0,0,0-0.1,0c0.1-0.3,0.1-0.7,0.2-1
		c0.1-0.8,0.3-1.6,0.5-2.4c0-0.1,0-0.2,0.1-0.2c0.1-0.3,0.1-0.5-0.1-0.7c-0.2-0.4-0.4-0.9-0.7-1.3c-0.1,0.2-0.1,0.4-0.2,0.6
		c-0.1,0.5-0.2,1-0.4,1.5c-0.2,0.5-0.2,1-0.3,1.6c0,0.4,0,0.8,0,1.1c0,0.3,0,0.5,0,0.8c-0.1,0-0.1,0-0.2,0c0,0,0,0,0,0
		c0-1.1,0-2.2,0.2-3.3c0.1-0.6,0.2-1.2,0.3-1.7c0-0.1,0-0.3,0-0.4c-0.1,0.3-0.3,0.5-0.5,0.6c0,0.1,0,0.2,0,0.3
		c0,0.3-0.2,0.5-0.6,0.5c-0.1,0-0.2,0-0.3,0.1c0,0-0.1,0.1-0.2,0c-0.1,0-0.2-0.1-0.4-0.1c-0.1,0-0.2-0.1-0.2-0.2
		c0.2,0.1,0.4,0.1,0.6,0.2c0,0,0,0,0,0c0-0.1-0.1-0.1-0.1-0.2c0-0.1-0.1-0.2-0.2-0.2c0,0,0-0.1,0-0.2c0.1,0,0.1,0,0.2,0.1
		C5,26.3,5,26.4,5.1,26.5c0.1,0.2,0.3,0.2,0.5,0.2c0.2,0,0.2-0.2,0.3-0.3c0-0.2-0.1-0.4-0.3-0.4c-0.1-0.1-0.3-0.1-0.4-0.2
		c-0.2-0.1-0.4-0.2-0.5-0.3c-0.2-0.2-0.3-0.4-0.4-0.5c-0.2,0-0.3,0.3-0.5,0.4c0.1,0.1,0.2,0.2,0.3,0.2c0,0,0.1-0.1,0.1-0.1
		c0.1,0,0.2,0,0.3,0c0,0,0,0.2,0,0.2c0,0.1,0,0.1,0,0.2c0,0.1,0.1,0.2,0.1,0.4c0.1-0.1,0.1-0.1,0.2-0.2c0.1-0.1,0.1-0.1,0.2-0.2
		c0,0,0.1,0,0.1,0c0,0,0,0.1,0,0.1c-0.1,0.1-0.2,0.3-0.3,0.4c-0.1,0.1-0.3,0.2-0.4,0.4C4.3,26.6,4.3,26.7,4.3,26.7L4.3,26.7z
		 M5.5,22.7C5.5,22.7,5.6,22.8,5.5,22.7c0,0.3,0.2,0.4,0.4,0.4c0.2,0,0.3,0.2,0.3,0.4c0,0,0,0.1,0,0.1c0,0-0.1,0-0.1,0
		c0,0,0-0.1-0.1-0.1c-0.1-0.1-0.1-0.1-0.2-0.2c-0.1,0-0.2-0.1-0.3-0.1c0,0.2,0.1,0.3,0.2,0.3c0.2,0.1,0.3,0.2,0.5,0.3c0,0,0,0,0,0
		c0,0,0.1-0.1,0.1-0.1c0,0.1,0,0.1,0.1,0.2c0,0.1,0,0.2,0,0.2c0.1,0.2,0.3,0.4,0.4,0.7c0-0.1,0-0.1,0-0.1c-0.5-1.4-1-2.8-1.5-4.2
		c0-0.1-0.1-0.1-0.2-0.1c0.1,0.4,0.3,0.7,0.2,1.1c0.1,0,0.2,0,0.3,0.1c0.1,0.1,0,0.2-0.1,0.3c0,0-0.1,0-0.1,0.1c0,0.1,0,0.1,0,0.2
		c0,0.2,0.1,0.3,0.1,0.5c0.1,0.1,0.1,0.1,0.2,0.1c0.1,0.1,0.2,0.2,0.2,0.3c0,0,0.1,0,0.1,0.1C6,23,6.1,23,6.1,23c0,0,0,0.1,0,0.1
		c-0.1,0-0.2,0-0.2-0.1C5.8,23,5.7,23,5.7,22.8C5.7,22.8,5.7,22.7,5.5,22.7c-0.1,0.1-0.2,0.1-0.2,0.2c-0.1,0.1-0.1,0.3-0.1,0.4
		c-0.1,0.3,0,0.4,0.3,0.4c0.2,0.1,0.3,0.3,0.5,0.5c-0.1,0-0.2,0-0.3-0.1c-0.1-0.1-0.2-0.2-0.4-0.3c-0.1-0.1-0.2-0.1-0.3-0.3
		c0,0-0.1,0-0.1-0.1c0,0.1-0.1,0.1-0.1,0.2c0,0,0.1,0.1,0.1,0.1c0.1,0,0.1,0.1,0.2,0.1c0.2,0.2,0.4,0.3,0.6,0.5
		c0.2-0.2,0.5-0.2,0.5-0.5c0,0-0.1,0-0.1-0.1c-0.1-0.1-0.2-0.1-0.3-0.2c-0.1-0.1-0.3-0.2-0.4-0.3c-0.1-0.1-0.1-0.2,0-0.3
		C5.5,23,5.5,22.8,5.5,22.7z M11.8,13.8c-0.1-0.3-0.3-0.5-0.6-0.6c0.1,0.1,0.3,0.3,0.4,0.4C11.7,13.7,11.7,13.7,11.8,13.8
		c0,0,0,0.1,0,0.1c0,0,0,0.1,0,0.1c0,0-0.1,0-0.1-0.1c-0.1-0.1-0.2-0.2-0.3-0.4c0,0.1,0,0.1,0,0.2c-0.1-0.1-0.2-0.1-0.2-0.1
		c0,0,0,0.1,0,0.1c-0.1,0-0.1,0-0.2,0c0.2,0.4,0.4,0.9,0.6,1.3c0.1,0.2,0.2,0.4,0.2,0.6c0.1,0.6,0.1,1.1,0.2,1.7
		c0.1,1,0.3,1.9,0.6,2.8c0.1,0.4,0.3,0.9,0.6,1.2c0.6,0.8,1.2,1.6,2,2.2c0.1,0.1,0.3,0.2,0.5,0.3c0.1,0,0.2,0,0.3,0
		c0.5-0.3,1-0.8,1.4-1.3c0.2-0.3,0.5-0.6,0.7-0.9c0.1-0.2,0.3-0.3,0.4-0.5c-0.2,0-0.3,0.1-0.4,0.1c-0.1,0-0.3,0.1-0.4,0.1
		c-0.5-0.1-1.1-0.3-1.6-0.5c-0.2-0.1-0.4-0.2-0.5-0.4c0,0.1-0.1,0.1-0.1,0.1c-0.2,0.3-0.3,0.6-0.5,0.9c-0.1,0.2-0.3,0.2-0.4,0.1
		c0,0,0,0-0.1-0.1c-0.2-0.2-0.2-0.4-0.3-0.6c-0.1-0.5-0.3-1-0.5-1.5c-0.2-0.7-0.4-1.4-0.6-2.1c-0.3-1-0.7-1.9-1.1-2.9
		c0-0.1-0.1-0.2-0.2-0.3C11.9,14,11.9,13.9,11.8,13.8z M10.6,13.3c-0.1,0-0.2,0-0.3,0c-0.2-0.1-0.3-0.1-0.4-0.2
		c-0.4-0.2-0.9-0.3-1.4-0.3c-0.4,0-0.8,0.1-1.1,0.4c-0.7,0.6-1.2,1.4-1.4,2.3c-0.1,0.2-0.1,0.5-0.1,0.8c0.1,0.5,0.3,1,0.5,1.5
		c0.5,0.9,1,1.8,1.4,2.7c0.3,0.6,0.6,1.2,0.9,1.7c0.3,0.6,0.6,1.2,0.9,1.7c0.2,0.3,0.4,0.6,0.7,0.9c0.1,0.1,0.2,0.2,0.3,0.2
		c0.4,0.3,0.8,0.7,1.3,1c1,0.5,2,1.1,3.1,1.5c0.7,0.3,1.6,0.5,2.3,0.7c0.3,0.1,0.7,0.1,1.1,0.1c0.2,0,0.3-0.1,0.3-0.2
		c0.1-0.5,0.2-1,0.3-1.5c0.1-0.4,0.1-0.9,0.1-1.3c0-0.2-0.1-0.3-0.3-0.2c-0.4,0-0.8,0-1.2-0.2c-0.5-0.2-0.9-0.4-1.4-0.6
		c-0.1,0-0.1,0-0.2,0c-0.1,0-0.2,0-0.3,0c-0.2-0.1-0.4-0.2-0.5-0.3c-0.5-0.4-0.9-0.8-1.3-1.2c-0.2-0.3-0.4-0.5-0.6-0.8
		c-0.3-0.4-0.5-0.8-0.7-1.3c-0.3-0.7-0.5-1.5-0.6-2.3c-0.1-0.6-0.2-1.2-0.2-1.7c0-0.3,0-0.7-0.2-1c-0.2-0.5-0.5-1-0.7-1.5
		C10.8,13.7,10.6,13.6,10.6,13.3C10.6,13.3,10.6,13.3,10.6,13.3z M14.2,18.7c0.2,0,0.3-0.1,0.4-0.1c0.5-0.1,1-0.2,1.4-0.1
		c0.2,0.1,0.3,0.1,0.4-0.1c0-0.1,0.1-0.1,0.1-0.2c0.2-0.3,0.3-0.6,0.5-0.9c0-0.1,0.1-0.1,0.1-0.2c0.1,0.1,0.1,0.1,0,0.2
		c-0.2,0.4-0.4,0.8-0.6,1.2c0,0-0.1,0.1,0,0.2c0.1,0.1,0.1,0.2,0.3,0.3c0.8,0.6,1.7,0.8,2.7,0.8c0.1,0,0.2-0.1,0.2-0.1
		c0.1-0.1,0.2-0.3,0.2-0.5c0.1-0.1,0.1-0.2,0.2-0.3c0.1,0.1,0.1,0.1,0.1,0.2c-0.1,0.2-0.2,0.5-0.3,0.7c0.1,0,0.3,0,0.4,0
		c0.1,0,0.2,0,0.2-0.1c0-0.3,0.1-0.6,0.1-0.9c0-0.5,0-0.9,0-1.4c0-0.3-0.1-0.6-0.1-0.9c0-0.5-0.2-1-0.4-1.4
		c-0.2-0.3-0.3-0.6-0.5-0.8c-0.1-0.2-0.2-0.5-0.2-0.7c0-0.2,0-0.4,0-0.6c0-0.1-0.1-0.2-0.1-0.3c-0.1-0.2-0.2-0.4-0.1-0.7
		c0.1-0.2,0.2-0.4,0.2-0.6c0-0.1,0.1-0.3,0-0.3c-0.1-0.1-0.3-0.2-0.4-0.2c-0.1,0.3-0.4,0.4-0.6,0.5c-0.1,0-0.2,0.1-0.2,0.2
		c0,0.1-0.1,0.2-0.2,0.2c-0.1,0-0.1-0.1-0.2-0.1c0,0,0-0.1-0.1-0.1c-0.1,0.2-0.2,0.3-0.3,0.5c-0.2,0.4-0.4,0.7-0.2,1.2c0,0,0,0,0,0
		c0,0.1,0,0.1,0,0.2c0,0,0,0-0.1,0c0,0-0.1-0.1-0.1-0.1c0-0.2-0.1-0.3-0.1-0.5c0-0.1,0-0.3,0-0.4c0.2-0.4,0.3-0.9,0.4-1.3
		c0.1-0.5,0.3-1,0.2-1.5c-0.1-0.3-0.1-0.5-0.2-0.8c0-0.2-0.1-0.3-0.1-0.5c0-0.4,0-0.7,0-1.1c0-0.2,0.1-0.5,0.2-0.7
		c0,0,0-0.1,0.1-0.2c-0.4,0.2-0.6,0.5-0.8,0.9c0,0.1,0,0.1,0.1,0.2c0.1,0.1,0.2,0.1,0.3,0.2c0.1,0.1,0.1,0.3,0,0.5
		c0-0.3-0.2-0.5-0.5-0.6c0,0.1-0.1,0.1-0.1,0.2c-0.2,0.4-0.5,0.7-0.9,0.9c-0.3,0.1-0.3,0.2-0.1,0.4c0.2,0.2,0.2,0.2,0,0.4
		c-0.1,0.1-0.1,0.2-0.2,0.2c0,0.1-0.1,0.1-0.1,0.2c0,0.1,0,0.1,0.1,0.2c0.2,0.1,0.3,0.2,0.5,0.1c0.1,0,0.2-0.1,0.3-0.1
		c0,0.3-0.4,0.4-0.8,0.2c-0.1,0.2-0.2,0.4-0.3,0.5c-0.1,0.2-0.1,0.3,0.1,0.4c0.2,0.1,0.4,0.2,0.7,0.3c0.2,0.1,0.4,0.3,0.5,0.5
		c0.1,0.2,0.2,0.5,0.3,0.7c0.1,0.1,0.1,0.3,0.1,0.4c0.1,0.4,0.2,0.9,0.1,1.3c0,0.3-0.1,0.4-0.4,0.5c-0.4,0.2-0.7,0.6-0.9,1
		c-0.1,0.3-0.1,0.6-0.2,0.8c-0.1,0.5-0.2,0.9-0.5,1.4C14.5,18.2,14.4,18.4,14.2,18.7z M11.1,12.8c0.1,0.3,0.3,0.4,0.5,0.5
		c0.1-0.1,0.1-0.2,0.2-0.2c0.1,0,0.2,0.1,0.3,0.1c0.1,0.1,0.2,0.3,0.3,0.5c0.2,0.5,0.4,1,0.5,1.5c0.1,0.4,0.1,0.8,0.3,1.2
		c0.4,0.7,0.6,1.5,0.8,2.4c0,0,0,0,0,0.1c0.1-0.1,0.1-0.1,0.1-0.2c0.1-0.2,0.2-0.4,0.3-0.5c0.4-0.6,0.6-1.3,0.7-2
		c0.1-0.8,0.5-1.3,1.2-1.6c0.1,0,0.1-0.1,0.1-0.1c0-0.3,0-0.7,0-1c-0.1-0.6-0.3-1.1-0.5-1.6c-0.1-0.2-0.2-0.3-0.4-0.4
		c-0.2-0.1-0.5-0.2-0.7-0.3c-0.3-0.1-0.3-0.4-0.1-0.6c0.2-0.2,0.3-0.4,0.3-0.7c0-0.2,0.1-0.4,0.2-0.5c0.1-0.1,0.1-0.1,0.2-0.2
		c0,0,0-0.1,0-0.1c-0.1-0.1-0.2-0.2-0.3-0.4c-0.1,0-0.3,0-0.3,0.1c-0.2,0.2-0.3,0.4-0.4,0.6c-0.1,0.2-0.2,0.3-0.3,0.4
		c-0.2,0.2-0.3,0.3-0.3,0.6c-0.1,0.3-0.2,0.4-0.5,0.5c-0.5,0-0.9,0-1.3-0.3c0,0,0,0-0.1,0c0,0-0.1,0.1-0.1,0.1
		c-0.2,0.2-0.3,0.4-0.5,0.5c-0.2,0.2-0.2,0.2-0.1,0.4c0,0,0,0.1,0,0.1c0.2-0.2,0.4-0.5,0.7-0.6c0,0.1,0,0.1,0.1,0.1
		c0.3,0,0.3,0,0.2,0.3c-0.2,0.3-0.3,0.7-0.5,1C11.6,12.5,11.4,12.7,11.1,12.8z M13.7,8.8c0.1,0.1,0.1,0.2,0.1,0.3
		c0.1,0.1,0.1,0.1,0.2,0.2c0,0,0.1-0.1,0.1-0.1c0.1-0.2,0.2-0.4,0.3-0.5c0.1-0.2,0.2-0.3,0.4-0.2c0.1,0,0.2,0,0.1-0.1
		c0-0.2,0-0.5-0.1-0.7c-0.1-0.2-0.1-0.5,0.1-0.7c-0.2-0.4-0.6-0.2-0.9-0.2c0-0.1,0.1-0.1,0.1-0.2c0.3-0.1,0.6,0,0.8,0.2
		c0-0.4,0.1-0.8,0.1-1.3c-0.2,0.1-0.4,0.2-0.6,0.3c-0.2,0.1-0.3,0.1-0.5,0.2c-0.4,0-0.7,0.2-0.8,0.5c-0.2,0.3-0.4,0.6-0.6,1
		c0,0.1-0.1,0.1-0.2,0.2c0-0.2-0.1-0.3-0.1-0.4c-0.1-0.5-0.3-0.9-0.6-1.3c-0.1-0.1-0.3-0.3-0.5-0.2c0,0.1,0,0.2-0.1,0.2
		c-0.1,0-0.2,0.2-0.2,0.3C11,6.3,11,6.5,10.9,6.7c-0.1,0.3,0,0.5,0.3,0.6c0.2,0.1,0.2,0.3,0.1,0.5c0-0.1-0.1-0.1-0.1-0.2
		c-0.1-0.1-0.1-0.2-0.2-0.2c-0.2-0.2-0.3-0.3-0.2-0.6c0-0.3,0.1-0.6,0.1-0.9c-0.3,0.2-0.7,0.5-0.9,0.8C9.9,7,9.8,7.1,9.7,7.2
		C9.4,7.5,9.1,7.9,8.7,8C8.5,8.1,8.5,8.3,8.6,8.4C8.9,8.6,9,8.9,9.3,9.1c0.3,0.3,0.7,0.7,1.1,1c0.3,0.2,0.6,0.4,0.8,0.8
		c0.1-0.1,0.2-0.1,0.2-0.2c0.2-0.2,0.3-0.3,0.5-0.5c0.1-0.1,0.2-0.1,0.3,0c0.1,0.2,0.3,0.3,0.5,0.3c0.3,0,0.5,0,0.8,0
		c0,0,0.1-0.1,0.1-0.1c0.1-0.3,0.2-0.6,0.5-0.8c0,0,0,0,0,0C13.7,9.3,13.6,9.1,13.7,8.8z M20.3,19.9c-0.1,0-0.3,0-0.4,0
		c-0.5,0-1.1-0.1-1.6-0.1c-0.7-0.1-1.3-0.5-1.8-1c0,0-0.1,0-0.1,0c-0.1-0.1-0.3,0-0.4-0.1c-0.3-0.1-0.6-0.1-1,0
		c-0.3,0.1-0.6,0.1-0.8,0.2c0.3,0.9,0.6,1.7,0.9,2.5c0-0.1,0.1-0.1,0.1-0.2c0.2-0.3,0.3-0.6,0.5-0.9c0,0,0.1-0.1,0.1-0.1
		c0.1,0,0.1,0.1,0.2,0.2c0.1,0.1,0.2,0.2,0.4,0.3c0.4,0.2,0.8,0.3,1.2,0.4c0.1,0,0.3,0.1,0.4,0c0.3-0.1,0.6-0.2,0.9-0.2
		c0,0,0.1,0,0.1,0c0,0,0,0.1,0,0.1c-0.2,0.3-0.4,0.6-0.7,0.9c-0.6,0.7-1.2,1.4-1.9,1.9c0,0,0,0,0,0c0.5,0.2,1,0.4,1.5,0.7
		c0.3,0.1,0.6,0.2,0.9,0.2c0.2,0,0.4,0,0.5-0.2c0.4-0.4,0.6-0.9,0.7-1.5c0.1-0.7,0.2-1.4,0.3-2C20.4,20.6,20.5,20.3,20.3,19.9z
		 M19.4,24.7c0.2,0,0.2,0.1,0.2,0.2c0,0.1,0,0.1,0,0.2c0.1,0.4,0.2,0.8,0,1.2c-0.1,0.3-0.2,0.6-0.3,0.9c0.2,0.3,0.4,0.3,0.8,0.3
		c0.4,0,0.7-0.3,0.8-0.7c0-0.1,0.1-0.2,0.2-0.3c0.1-0.1,0.2-0.2,0.3-0.3c0.1-0.1,0.1-0.1,0-0.2c-0.2-0.1-0.2-0.1,0-0.3
		c0.1-0.1,0.2-0.2,0.1-0.3c0,0,0,0-0.1,0c-0.3,0-0.3,0-0.3-0.2c0-0.2-0.1-0.3-0.2-0.4c-0.1,0-0.2-0.1-0.3-0.1
		c-0.2-0.1-0.2-0.1-0.2-0.3c0-0.2,0.1-0.3,0.1-0.5c-0.2-0.1-0.4-0.1-0.6-0.2C19.8,24.1,19.6,24.4,19.4,24.7z M7.2,9
		C7.2,9,7.2,9,7.2,9C7.1,9.2,7.1,9.4,7,9.5c-0.1,0.3-0.1,0.4,0.2,0.5c0.3,0.2,0.7,0.4,1,0.5c0.6,0.3,1.2,0.7,1.6,1.3
		c0.1,0.2,0.3,0.3,0.4,0.5c0,0.1,0.1,0.1,0.2,0.2c0.2,0.1,0.4,0.2,0.5,0.2c-0.2-0.4-0.5-0.9-0.7-1.3c-0.1-0.2-0.2-0.4-0.4-0.6
		C9.2,10,8.2,9.4,7.2,9z M10.8,12.3c0.1-0.1,0.1-0.2,0.1-0.3c0.3-0.3,0.2-0.6,0-1c-0.1-0.3-0.3-0.5-0.5-0.6C9.9,10,9.4,9.5,9,9
		C8.8,8.8,8.7,8.6,8.5,8.5C8.4,8.4,8.4,8.4,8.3,8.3C8.2,8.2,8.1,8.2,8,8.3C7.9,8.5,7.7,8.7,7.6,8.9C7.7,9,7.8,9,7.8,9.1
		c0.4,0.2,0.8,0.4,1.1,0.7c0.7,0.5,1.3,1.3,1.6,2.1C10.6,12,10.7,12.1,10.8,12.3z M11.2,25.7C11.2,25.7,11.2,25.8,11.2,25.7
		c-0.1,0.1-0.1,0.1-0.2,0.1c-0.2,0-0.4,0-0.5,0c-0.1,0-0.2,0-0.4,0c0,0.4,0,0.8,0,1.1c0,0.1,0.1,0.1,0.1,0.1c0.3-0.1,0.7-0.1,1-0.2
		c0.5-0.1,1.1-0.2,1.6-0.2c0.1,0,0.1,0,0.2,0c-0.1-0.1-0.2-0.2-0.4-0.2c-0.5-0.3-1-0.5-1.4-0.9c-0.1-0.1-0.2-0.1-0.3-0.1
		c-0.3,0-0.5,0.1-0.8,0.1c0,0,0,0,0,0c0.1,0,0.1,0,0.2,0c0.2,0,0.5,0,0.7,0C11.1,25.7,11.2,25.7,11.2,25.7z M2.6,22.2
		C2.6,22.1,2.6,22.1,2.6,22.2c-0.1-0.1-0.2-0.1-0.2-0.1c-0.3,0.1-0.4,0.5-0.3,0.8c0.1,0.2,0.3,0.3,0.5,0.2C2.7,23.1,2.9,23,3,23
		c0.1,0,0.2,0,0.4,0c0,0,0.1,0,0.1,0.1c0,0-0.1,0.1-0.1,0.1c0,0-0.1,0-0.1,0c-0.1,0-0.1,0-0.2,0c-0.2,0.1-0.5,0.1-0.7,0.2
		c0,0-0.1,0.1-0.1,0.1c0.1,0,0.1,0,0.2,0c0.2,0,0.4,0,0.6-0.1c0,0,0.1,0,0.1,0c0,0,0,0,0,0.1c-0.1,0-0.1,0.1-0.2,0.1
		c0.2-0.1,0.4,0,0.5,0.1c0-0.1,0.1-0.1,0.1-0.2c0-0.1,0.1-0.1,0.1-0.2c0-0.1,0-0.2,0-0.3c0-0.1,0-0.2-0.1-0.3
		c-0.1-0.1-0.2-0.2-0.2-0.3c-0.1-0.1-0.2-0.1-0.2,0c0,0.1-0.1,0.1-0.1,0.2c0,0.1-0.1,0.2-0.1,0.3C3,22.9,3,22.9,3,23
		c0,0,0-0.1,0-0.1c0-0.1,0-0.1,0-0.2c0-0.1,0-0.1-0.1-0.1c-0.2,0-0.4,0.1-0.5,0.3c0.2,0.1,0.4-0.1,0.6-0.2c0,0.2-0.1,0.3-0.2,0.4
		c-0.1,0-0.3,0-0.4-0.1c-0.1-0.1-0.1-0.3,0.1-0.4C2.2,22.3,2.3,22.3,2.6,22.2z M5.2,25.3c0.1-0.2,0.3-0.4,0.4-0.6c0,0,0-0.1,0-0.1
		c-0.2-0.2-0.3-0.3-0.5-0.5c0,0-0.2-0.1-0.2,0c-0.1,0.1-0.2,0.3-0.3,0.4c0,0,0,0.1,0,0.2C4.8,24.9,5,25.2,5.2,25.3z M4.7,22.4
		c-0.1,0.2-0.2,0.2-0.4,0.1c-0.1,0-0.1,0-0.2-0.1c-0.2-0.1-0.4-0.2-0.4-0.4c0-0.1-0.1-0.2-0.1-0.3c-0.1-0.2-0.2-0.3-0.3-0.5
		c-0.1,0.1-0.1,0.1,0,0.2c0.2,0.2,0.3,0.5,0.5,0.7C3.8,22.5,4,22.7,3.9,23c0.4,0,0.8,0,1.2,0c0-0.1,0-0.1,0-0.2
		C5.1,22.6,5,22.5,5,22.4C4.9,22.4,4.8,22.4,4.7,22.4z M3.8,23.7c-0.2,0.2-0.2,0.2-0.3,0c0,0-0.1-0.1-0.1-0.1c-0.1,0-0.1,0-0.2,0
		c0,0.1,0,0.1,0,0.2c0,0,0.1,0.1,0.1,0.1c0,0,0.1,0,0.2,0.1c-0.1,0.1-0.2,0.1-0.2,0.2c-0.2,0.1-0.3,0.3-0.2,0.4
		c0.1-0.1,0.2-0.3,0.3-0.4c0-0.1,0-0.2,0.2-0.2c0,0,0,0.2,0,0.2c0,0.1,0,0.2,0,0.3c0,0,0,0,0.1,0c0.1-0.2,0.1-0.4,0.2-0.6
		c0.1,0,0.2,0.1,0.3,0.1c0,0,0.1,0,0.2,0c0,0,0-0.1-0.1-0.1c-0.1,0-0.1-0.1-0.2-0.1c-0.1,0-0.1-0.1-0.1-0.2c0-0.1,0-0.1,0.1-0.2
		c0,0,0,0,0,0c-0.1,0.1-0.1,0.2-0.2,0.2C3.7,23.7,3.8,23.7,3.8,23.7z M18.2,11c0.3,0,0.5-0.2,0.7-0.4c-0.3-0.3-0.6-0.5-0.8-0.8
		c0,0.3-0.1,0.6-0.1,0.9C18,10.9,18.1,10.9,18.2,11z M19.4,24.9C19.4,24.9,19.4,24.9,19.4,24.9c-0.1,0.1-0.1,0.1-0.1,0.2
		c0,0.2,0,0.3,0,0.4c0,0.3-0.1,0.6-0.1,1c0,0.3-0.1,0.5-0.1,0.8C19.6,26.6,19.6,25.8,19.4,24.9z M2.8,25.9c0,0,0.1,0.1,0.1,0.1
		c0.3,0,0.6,0.1,0.7-0.3c0-0.1-0.1-0.2-0.2-0.3c0,0-0.1,0-0.1,0.1c-0.2,0.1-0.3,0.1-0.5,0c-0.3-0.2-0.4-0.5-0.6-0.8c0,0,0,0,0,0
		c0-0.1,0-0.1-0.1-0.1c0,0-0.1,0-0.1,0.1c0,0,0,0.1,0.1,0.1c0.1,0.1,0.2,0.2,0.2,0.3c0,0,0.1,0.1,0.1,0.1c0.1,0.1,0.2,0.1,0.2,0.2
		c0.2,0.3,0.3,0.4,0.7,0.2c0.1,0,0.1,0,0.2,0c0,0,0,0,0,0.1C3.3,25.9,3.1,25.9,2.8,25.9z M2.5,21.9c0.1,0,0.1,0,0.2,0
		c0.2,0.2,0.4,0,0.7,0c-0.1-0.1-0.2-0.2-0.2-0.3C3,21.6,3,21.4,2.9,21.3C2.7,21.4,2.4,21.7,2.5,21.9z M4.7,22.1
		c-0.5,0-0.5-0.1-0.5-0.4C4.1,21.9,4,21.9,3.9,22c0,0,0,0.1,0,0.1c0.1,0.2,0.5,0.3,0.6,0.3C4.7,22.4,4.7,22.3,4.7,22.1z M21.7,26.3
		C21.7,26.3,21.6,26.3,21.7,26.3c-0.2,0.2-0.5,0.3-0.6,0.6c0,0,0.1,0,0.1,0c0,0.1,0,0.3,0.1,0.4c0.2,0,0.2-0.1,0.2-0.2
		c0-0.1,0.1-0.2,0.1-0.4C21.6,26.6,21.6,26.5,21.7,26.3z M4.8,20.5c-0.2,0.1-0.3,0.2-0.5,0.3C4.2,20.9,4.1,21,3.9,21
		c0.1,0.2,0.2,0.3,0.4,0.3c0.1,0,0.1,0,0.2-0.1c0-0.2,0.1-0.3,0.1-0.5c0-0.1,0.1-0.1,0.1-0.2c0,0,0.1,0,0.2,0
		C4.8,20.6,4.8,20.5,4.8,20.5z M5.1,23C5.1,23,5,23,5,23.1c0,0.2-0.1,0.2-0.2,0.2c-0.3,0.1-0.6,0-0.9-0.1c0.2,0.2,0.5,0.4,0.7,0.6
		c0.1-0.1,0.2-0.2,0.3-0.3c0.1-0.1,0.2-0.1,0.2-0.3C5.1,23.1,5.1,23.1,5.1,23z M2.8,25c-0.1,0.2-0.1,0.2,0.1,0.4
		c0.2,0.2,0.3,0.1,0.5-0.1c0.2-0.1,0.2-0.2,0.1-0.4c-0.3,0.3-0.4,0.4-0.6,0.2c0.1,0,0.2-0.1,0.3-0.1C3,24.8,3,25.1,2.8,25.1
		C2.8,25.1,2.8,25,2.8,25z M5,20.2C5,20.2,5,20.2,5,20.2c-0.1-0.4-0.2-0.4-0.5-0.2c-0.1,0.1-0.3,0.2-0.4,0.2c-0.1,0-0.2,0-0.2,0.1
		c-0.1,0.1-0.1,0.3-0.2,0.4c0.1-0.1,0.1-0.1,0.2-0.2c0.1,0,0.1-0.1,0.2-0.1c0.1,0,0.2-0.1,0.3-0.2c0.1-0.1,0.2-0.1,0.3-0.1
		C4.8,20.2,4.9,20.2,5,20.2z M3.9,25.9c0,0.1,0,0.1,0,0.2c0,0.1-0.1,0.1-0.1,0.2c0,0.1-0.1,0.1-0.1,0.2c0,0,0,0,0.1,0
		c0.1-0.1,0.1-0.2,0.2-0.2C4,26.1,4,26,4.1,25.9c0.1,0.1,0.1,0.2,0.2,0.3c0,0,0,0,0,0c0-0.1,0-0.1,0-0.2c-0.1-0.1-0.1-0.3,0-0.4
		c0,0,0,0,0,0c0,0-0.1,0.1-0.1,0.1C4,25.8,4,25.9,3.9,25.9c-0.2,0-0.4,0.2-0.4,0.3C3.6,26.1,3.7,26,3.9,25.9z M4.8,24
		c-0.1,0-0.1-0.1-0.2-0.2c0.1,0.3,0,0.4-0.2,0.5c-0.1,0.1-0.3,0.1-0.5,0.1c-0.1,0-0.3,0.2-0.3,0.3c0,0,0,0,0,0
		c0.2-0.2,0.4-0.3,0.7-0.3c0,0,0.1,0,0.1,0C4.6,24.3,4.7,24.2,4.8,24z M4.1,26.6c-0.1,0-0.2-0.1-0.2-0.1c-0.2,0.1-0.3,0-0.3-0.2
		c-0.1,0.1-0.2,0.2-0.2,0.3C3.6,26.8,3.8,26.9,4.1,26.6z M1.8,22.4c0-0.1,0.1-0.3,0.3-0.2c0,0,0,0,0,0c0.1-0.1,0.2-0.2,0.3-0.3
		c-0.1,0-0.1,0-0.1-0.1C2.2,21.9,2.1,22,2,22c-0.4,0.1-0.6,0.4-0.7,0.8c0,0.1,0,0.1,0,0.2C1.5,22.7,1.4,22.4,1.8,22.4z M21.1,24.7
		c-0.1-0.1-0.1-0.3-0.2-0.4c0-0.1-0.1-0.1-0.2-0.1c-0.1,0-0.1,0.1-0.1,0.2c0,0,0,0.1,0.1,0.2C20.8,24.6,21,24.7,21.1,24.7z
		 M5.1,25.5C5.1,25.5,5.1,25.5,5.1,25.5c-0.2-0.3-0.4-0.5-0.6-0.7c0,0,0,0-0.1,0.1c0,0.1,0.1,0.2,0.1,0.2c0.1,0.1,0.2,0.3,0.4,0.4
		C4.9,25.5,5,25.5,5.1,25.5z M14.7,21.2C14.7,21.2,14.8,21.2,14.7,21.2c-0.2-0.7-0.4-1.3-0.6-2c0,0,0,0,0,0
		C14.3,19.9,14.5,20.5,14.7,21.2z M2.1,25.6C2,25.5,2,25.4,2,25.3C2,25.2,2,25.1,2.1,25C2,25,1.9,24.9,1.8,24.7c0,0-0.1,0.1-0.1,0.1
		c0,0,0,0-0.1,0.1C1.7,25,1.8,25,1.8,25c0.1,0,0.1,0.1,0.1,0.2c0,0.1-0.1,0.2-0.1,0.2C1.8,25.5,2,25.6,2.1,25.6
		C2,25.6,2,25.6,2.1,25.6z M12.3,14.1c-0.1-0.3-0.2-0.6-0.5-0.9C11.8,13.7,12.1,13.9,12.3,14.1z M2.2,25.2c-0.1,0.1-0.1,0.1-0.1,0.2
		c0,0.1,0.1,0.1,0.1,0.2C2.3,25.9,2.5,26,2.8,26C2.5,25.8,2.2,25.6,2.2,25.2z M6.5,26.7C6.5,26.7,6.5,26.7,6.5,26.7
		c0.1-0.4,0.2-0.9,0.3-1.3c0-0.1,0-0.2-0.1-0.2C6.6,25.7,6.5,26.2,6.5,26.7z M4.7,21C4.7,21,4.7,21,4.7,21c0,0.1-0.1,0.1-0.1,0.2
		c-0.1,0.2-0.1,0.3-0.3,0.3c0,0,0,0-0.1,0c0.1,0,0.3,0.1,0.4,0.1C4.7,21.4,4.7,21.2,4.7,21z M6.2,24.4c0.2,0.2,0.3,0.4,0.5,0.6
		c0,0,0,0,0,0c-0.1-0.3-0.2-0.5-0.4-0.7C6.3,24.3,6.3,24.3,6.2,24.4C6.2,24.4,6.2,24.4,6.2,24.4z M2,23.9c-0.1-0.2-0.5-0.1-0.6-0.5
		C1.3,23.7,1.5,23.9,2,23.9z M2.8,24.2c-0.2,0-0.6,0.2-0.6,0.3c0.1,0,0.2,0,0.3,0C2.6,24.4,2.7,24.3,2.8,24.2z M5.4,21.6
		c-0.2,0-0.4,0.4-0.5,0.7c0.1,0,0.1-0.1,0.2-0.1C5.2,21.9,5.3,21.7,5.4,21.6z M2.9,26.6c0-0.1,0-0.1,0-0.2c-0.2-0.1-0.3-0.1-0.5-0.2
		C2.5,26.4,2.7,26.6,2.9,26.6z M5.4,25.4c-0.1,0.1-0.2,0.2-0.2,0.3c0.1,0.1,0.2,0.1,0.3,0C5.5,25.5,5.5,25.4,5.4,25.4z M3.4,21.3
		c0.2,0,0.3-0.1,0.4-0.1c-0.1-0.1-0.1-0.1-0.2-0.2C3.5,21.1,3.4,21.2,3.4,21.3z M5.6,25.2C5.5,25.2,5.5,25.2,5.6,25.2
		c0,0.2,0.2,0.4,0,0.6c0.2,0,0.3-0.1,0.2-0.2C5.7,25.4,5.6,25.3,5.6,25.2z M3.5,20.7c0-0.1,0-0.2-0.1-0.2c-0.2,0-0.2-0.2-0.3-0.3
		c0,0-0.1,0-0.1,0c0,0.1,0,0.1,0.1,0.2C3.2,20.4,3.4,20.5,3.5,20.7z M1.6,23.5c0.2,0.2,0.5,0.2,0.6,0.5c0-0.1-0.1-0.2-0.1-0.2
		C1.9,23.6,1.8,23.4,1.6,23.5z M2.1,21.4c0.1,0.1,0.2,0.2,0.3,0.2c0.1-0.1,0.1-0.2,0.2-0.3C2.4,21.4,2.2,21.4,2.1,21.4z M2.3,23.6
		c0,0.1,0.1,0.2,0.1,0.3c0.1,0,0.1-0.1,0.1-0.1c0,0,0-0.1,0.1-0.1c0,0-0.1-0.1-0.1-0.1C2.4,23.6,2.4,23.6,2.3,23.6z M6.3,25.3
		C6.3,25.3,6.3,25.3,6.3,25.3c0-0.1-0.1-0.2-0.1-0.3c-0.1-0.1-0.1-0.2-0.2-0.3c0,0,0,0-0.1-0.1c0,0,0,0,0,0c0,0,0,0.1,0,0.1
		C6,25,6.1,25.1,6.3,25.3z M3.3,26.1c-0.1,0.2-0.2,0.3-0.2,0.5C3.2,26.7,3.4,26.4,3.3,26.1z M4.4,22c0.1,0,0.3,0,0.4,0
		C4.6,21.8,4.5,21.8,4.4,22z M5.8,25.3c0.1,0.2,0.1,0.4,0,0.6C6.1,25.8,6.1,25.6,5.8,25.3z M4.1,20.6C4,20.7,3.9,20.8,3.8,21
		c0.1,0,0.2-0.1,0.4-0.3C4.2,20.6,4.1,20.6,4.1,20.6z M21.3,25C21.3,25,21.3,25,21.3,25c0,0.1,0,0.2,0.1,0.4c0.1,0,0.1,0,0.2-0.1
		C21.4,25.2,21.4,25.1,21.3,25z M1.8,23c-0.1-0.1-0.1-0.1-0.2-0.2c0,0.2,0,0.3,0,0.4C1.7,23.2,1.7,23.1,1.8,23z M5,21.1
		C5,21.1,5,21.1,5,21.1c-0.1,0-0.1,0.1-0.1,0.1c0,0.1,0.1,0.2,0.1,0.4c0,0,0.1-0.1,0.2-0.2C5,21.4,5,21.2,5,21.1z M3.6,21.5
		c0.2,0,0.3,0,0.5,0.1C3.9,21.4,3.7,21.4,3.6,21.5z M5,20.4C5,20.4,5,20.4,5,20.4c0,0.2,0,0.4,0.1,0.5c0,0,0,0,0.1,0
		C5.1,20.7,5.1,20.5,5,20.4z M4.1,26.2c0,0.1-0.1,0.2,0,0.2c0.1,0.1,0.2,0.1,0.2,0C4.2,26.3,4.1,26.3,4.1,26.2z M2.9,24.3
		c-0.1,0.1-0.2,0.2-0.4,0.3c0,0,0,0,0,0C2.7,24.6,2.8,24.5,2.9,24.3z M18,11.1C17.9,11.1,17.9,11.1,18,11.1c-0.1,0-0.1,0.1-0.1,0.2
		c0,0,0.1,0.1,0.1,0.1c0,0,0,0,0,0C18,11.3,18,11.2,18,11.1z M1.7,22.6c0,0.1,0,0.2,0.2,0.3c0,0,0,0,0,0C1.9,22.8,1.8,22.7,1.7,22.6
		z M2.1,26.7C2.1,26.8,2.1,26.8,2.1,26.7c0.1-0.1,0.1-0.2,0.2-0.4c-0.1,0-0.1,0-0.2,0c0.1,0,0.1,0.1,0.1,0.1
		C2.2,26.6,2.1,26.7,2.1,26.7z M3.8,21.9c0.1-0.1,0.1-0.1,0.2-0.2c-0.1,0-0.2,0-0.3,0C3.7,21.8,3.7,21.8,3.8,21.9z M2,23.2
		c0,0.1-0.1,0.2,0.1,0.3C2.1,23.4,2.2,23.3,2,23.2z M2.8,26.2c0.1,0.1,0.2,0.2,0.3,0C3,26.2,2.9,26.2,2.8,26.2z M3.4,24.9
		c-0.1-0.1-0.1-0.2-0.2-0.3c0,0-0.1,0.1-0.1,0.1C3.2,24.8,3.3,24.8,3.4,24.9z M3.9,24.4c0.1,0,0.2,0,0.3,0c0,0,0,0,0,0
		c-0.1,0-0.2-0.1-0.3-0.1C3.9,24.3,3.9,24.3,3.9,24.4z M2.2,20.5c0,0.2,0.1,0.2,0.2,0.1C2.3,20.6,2.2,20.6,2.2,20.5z M2.8,21
		c-0.1-0.1-0.1-0.3-0.3-0.1C2.6,20.9,2.7,20.9,2.8,21z M2.3,21.2c-0.1,0-0.2,0-0.3,0C2,21.3,2.1,21.2,2.3,21.2z M2.9,22.2
		C3,22.2,3,22.3,3.1,22.3c0-0.1,0.1-0.1,0.1-0.2C3.1,22.2,3,22.2,2.9,22.2z M2.9,24.1c0.1,0,0.1,0,0.2,0.1C3,24,3,24,3,23.9
		C2.9,24,2.9,24,2.9,24.1z"/>
	<path d="M26.8,17.9c0,0.1,0.1,0.1,0.1,0.2c0.2,0.7,0.3,1.3,0.4,2c0.2,0.8,0.4,1.5,0.6,2.3c0.1,0.6,0.2,1.1,0.3,1.7c0,0,0,0.1,0,0.1
		c0.1,0,0.1,0,0.2-0.1c0.3-0.2,0.6-0.4,0.8-0.7c0.2-0.2,0.2-0.4,0.1-0.7c-0.5-0.8-0.7-1.7-1-2.5c-0.5-1.5-1.2-2.9-2.1-4.3
		c-0.3-0.5-0.5-1-0.8-1.5c-0.4-0.8-0.8-1.6-1.2-2.4c0-0.1-0.1-0.2,0-0.2c0,0,0.1,0.1,0.2,0.2c0.8,1.5,1.4,3.1,2.3,4.5
		c0.6,1,1,2,1.5,3.1c0.2,0.6,0.4,1.2,0.7,1.8c0.1,0.2,0.2,0.4,0.3,0.6c0.7,1.3,1.2,2.6,1.6,4c0,0.2,0.1,0.4,0.1,0.5
		c0,0.1,0,0.2,0,0.3c-0.3-1.2-0.7-2.4-1.2-3.5c-0.2,0.2-0.4,0.5-0.7,0.7c-0.1,0.1-0.3,0.2-0.5,0.3c-0.1,0.1-0.1,0.1-0.1,0.2
		c0.1,0.6,0.2,1.3,0.3,1.9c0,0.2,0.1,0.4,0.1,0.6c0.1,1.3,0.1,2.5,0.1,3.8c0,0,0,0.1,0,0.1c-0.2,0-0.2,0-0.3-0.1
		c-0.1-0.8-0.2-1.6-0.5-2.4c-0.2-0.6-0.2-1.1-0.3-1.7c-0.1-0.7-0.2-1.3-0.4-2c0,0,0-0.1,0-0.1c0,0,0-0.1,0-0.1c0,0,0.1,0,0.1,0.1
		c0.1,0.3,0.1,0.6,0.2,0.8c0.2,0.8,0.3,1.7,0.4,2.5c0.1,0.5,0.3,1,0.4,1.6c0,0.2,0.1,0.4,0.1,0.5c0-0.3,0-0.7,0-1
		c0-0.6-0.1-1.2-0.1-1.8c0-0.4-0.1-0.7-0.2-1.1c-0.1-0.5-0.2-1-0.2-1.6c-0.2-1.3-0.4-2.5-0.7-3.7c-0.3-0.9-0.4-1.8-0.6-2.6
		C26.7,18,26.7,17.9,26.8,17.9C26.8,17.9,26.8,17.9,26.8,17.9z"/>
	<path d="M25.3,28.1c0-0.1,0-0.2,0-0.2c0-1.1,0-2.2-0.1-3.3c0-1-0.1-1.9-0.2-2.9c-0.1-1.3-0.2-2.6-0.2-3.9c0-0.1,0-0.3,0-0.4
		c0-0.1,0-0.1,0-0.2c0,0,0-0.1,0.1-0.1c0,0,0.1,0.1,0.1,0.1c0,0.4,0,0.9,0,1.3c0.1,0.9,0.1,1.9,0.2,2.8c0.1,1,0.2,2,0.2,2.9
		c0,1.2,0,2.5,0,3.7C25.4,28.1,25.4,28.1,25.3,28.1z"/>
	<path d="M4.3,26.7C4.3,26.7,4.3,26.7,4.3,26.7c0.1,0.2,0.4,0.3,0.5,0.5c0.1,0,0.2,0,0.2,0c0.1,0,0.1,0,0.2,0c0.1,0,0.1-0.1,0.2-0.1
		C5.6,27,5.9,27,6,26.7c0-0.1,0.1-0.1,0.2,0C6.1,26.8,6,27,5.9,27.1c0,0-0.1,0.1-0.2,0.1c-0.3,0.1-0.5,0.1-0.8,0.2c0,0,0,0-0.1,0
		C5,27.8,5,28.2,5.1,28.6c0,0.4,0.1,0.8,0.1,1.2c0,0.3,0,0.6,0.1,1c0,0.1,0,0.1,0,0.2c0,0,0,0,0,0c0-0.1-0.1-0.1-0.1-0.2
		C5,29.9,5,29.1,4.9,28.3c0-0.3-0.1-0.5-0.2-0.8c-0.1-0.2-0.3-0.3-0.4-0.5c-0.1,0.2-0.2,0.3-0.3,0.4c-0.1,0.1-0.2,0.1-0.3,0
		c-0.2-0.2-0.5-0.3-0.7-0.5c0,0,0,0,0,0c0-0.1,0.1-0.1,0.2-0.1c0.2,0.1,0.4,0.2,0.6,0.4c0.1,0.1,0.1,0.1,0.2,0
		c0-0.1,0.1-0.2,0.1-0.3C4.2,26.9,4.2,26.8,4.3,26.7C4.3,26.7,4.3,26.7,4.3,26.7z"/>
	<path d="M5.8,27.3c0,0,0,0.1,0,0.1c0,1.1,0,2.2,0,3.4c0,0,0,0.1,0,0.1c0,0,0,0-0.1,0.1c0,0-0.1,0-0.1-0.1c0,0,0-0.1,0-0.1
		c0-0.9,0-1.7,0-2.6c0-0.2,0-0.4,0-0.7C5.6,27.3,5.6,27.3,5.8,27.3z"/>
	<path class="st0" d="M10.6,13.3C10.6,13.3,10.6,13.3,10.6,13.3c0,0.3,0.2,0.5,0.3,0.7c0.2,0.5,0.5,1,0.7,1.5c0.1,0.3,0.1,0.7,0.2,1
		c0.1,0.6,0.1,1.2,0.2,1.7c0.1,0.8,0.3,1.6,0.6,2.3c0.2,0.5,0.4,0.9,0.7,1.3c0.2,0.2,0.4,0.5,0.6,0.8c0.4,0.5,0.8,0.8,1.3,1.2
		c0.1,0.1,0.3,0.2,0.5,0.3c0.1,0,0.2,0,0.3,0c0.1,0,0.2,0,0.2,0c0.5,0.2,0.9,0.4,1.4,0.6c0.4,0.2,0.8,0.3,1.2,0.2
		c0.1,0,0.3,0.1,0.3,0.2c0.1,0.4,0,0.9-0.1,1.3c-0.1,0.5-0.2,1-0.3,1.5c0,0.2-0.1,0.2-0.3,0.2c-0.4,0-0.7,0-1.1-0.1
		c-0.8-0.2-1.6-0.4-2.3-0.7C14,27,13,26.4,12,25.9c-0.5-0.3-0.8-0.7-1.3-1c-0.1-0.1-0.2-0.2-0.3-0.2c-0.3-0.2-0.6-0.5-0.7-0.9
		c-0.3-0.6-0.6-1.2-0.9-1.7c-0.3-0.6-0.6-1.1-0.9-1.7c-0.4-0.9-0.9-1.8-1.4-2.7c-0.3-0.5-0.4-1-0.5-1.5c0-0.2,0-0.5,0.1-0.8
		c0.2-0.9,0.8-1.6,1.4-2.3c0.3-0.3,0.7-0.4,1.1-0.4c0.5,0,1,0.1,1.4,0.3c0.1,0.1,0.3,0.1,0.4,0.2C10.4,13.3,10.5,13.3,10.6,13.3z"/>
	<path class="st0" d="M14.2,18.7c0.2-0.3,0.3-0.6,0.5-0.8c0.3-0.4,0.4-0.9,0.5-1.4c0-0.3,0.1-0.6,0.2-0.8c0.1-0.5,0.4-0.8,0.9-1
		c0.2-0.1,0.3-0.2,0.4-0.5c0-0.5,0-0.9-0.1-1.3c0-0.1-0.1-0.3-0.1-0.4c-0.1-0.2-0.2-0.5-0.3-0.7c-0.1-0.2-0.2-0.4-0.5-0.5
		c-0.2-0.1-0.5-0.2-0.7-0.3c-0.2-0.1-0.2-0.2-0.1-0.4c0.1-0.2,0.2-0.3,0.3-0.5c0.4,0.2,0.8,0.1,0.8-0.2c-0.1,0-0.2,0.1-0.3,0.1
		c-0.2,0.1-0.4,0-0.5-0.1c0,0-0.1-0.1-0.1-0.2c0-0.1,0.1-0.2,0.1-0.2c0.1-0.1,0.1-0.2,0.2-0.2c0.2-0.2,0.2-0.2,0-0.4
		c-0.2-0.3-0.2-0.3,0.1-0.4c0.4-0.2,0.7-0.5,0.9-0.9c0-0.1,0.1-0.1,0.1-0.2c0.2,0.1,0.4,0.3,0.5,0.6c0.1-0.2,0.1-0.3,0-0.5
		c-0.1-0.1-0.2-0.2-0.3-0.2c-0.1,0-0.1-0.1-0.1-0.2c0.2-0.4,0.4-0.7,0.8-0.9c0,0.1,0,0.1-0.1,0.2c-0.1,0.2-0.2,0.5-0.2,0.7
		c0,0.4,0,0.7,0,1.1c0,0.2,0.1,0.3,0.1,0.5c0.1,0.3,0.2,0.5,0.2,0.8c0.1,0.5,0,1-0.2,1.5c-0.1,0.4-0.2,0.9-0.4,1.3
		c-0.1,0.1,0,0.2,0,0.4c0,0.2,0.1,0.3,0.1,0.5c0,0.1,0,0.1,0.1,0.1c0,0,0,0,0.1,0c0-0.1,0-0.1,0-0.2c0,0,0,0,0,0
		c-0.2-0.4,0-0.8,0.2-1.2c0.1-0.2,0.2-0.3,0.3-0.5c0,0,0,0.1,0.1,0.1c0.1,0,0.2,0.1,0.2,0.1c0.1,0,0.2-0.1,0.2-0.2
		c0-0.1,0.1-0.2,0.2-0.2c0.3-0.1,0.5-0.2,0.6-0.5c0.1,0.1,0.3,0.1,0.4,0.2c0.1,0.1,0.1,0.2,0,0.3c-0.1,0.2-0.1,0.4-0.2,0.6
		c-0.1,0.2-0.1,0.5,0.1,0.7c0.1,0.1,0.1,0.2,0.1,0.3c0,0.2,0,0.4,0,0.6c0,0.3,0.1,0.5,0.2,0.7c0.2,0.3,0.3,0.5,0.5,0.8
		c0.2,0.4,0.4,0.9,0.4,1.4c0,0.3,0.1,0.6,0.1,0.9c0,0.5,0,0.9,0,1.4c0,0.3-0.1,0.6-0.1,0.9c0,0.1-0.1,0.2-0.2,0.1
		c-0.1,0-0.2,0-0.4,0c0.1-0.3,0.2-0.5,0.3-0.7c0-0.1,0-0.1-0.1-0.2c-0.1,0.1-0.1,0.2-0.2,0.3c-0.1,0.2-0.1,0.3-0.2,0.5
		c0,0.1-0.1,0.1-0.2,0.1c-1,0-1.9-0.2-2.7-0.8c-0.1-0.1-0.2-0.2-0.3-0.3c0,0,0-0.1,0-0.2c0.2-0.4,0.4-0.8,0.6-1.2
		c0-0.1,0.1-0.1,0-0.2c0,0.1-0.1,0.1-0.1,0.2c-0.2,0.3-0.3,0.6-0.5,0.9c0,0.1-0.1,0.1-0.1,0.2c-0.1,0.2-0.2,0.2-0.4,0.1
		c-0.5-0.1-1-0.1-1.4,0.1C14.5,18.6,14.4,18.7,14.2,18.7z M18,15.6c-0.1,0-0.1-0.1-0.2-0.1c-0.3,0-0.5-0.1-0.7-0.2
		c-0.1,0-0.2-0.1-0.3-0.2c-0.1,0-0.1-0.1-0.2-0.1c0,0,0,0-0.1,0.1c0,0.1,0.1,0.1,0.1,0.2c0.2,0.2,0.5,0.3,0.8,0.4
		C17.7,15.7,17.8,15.7,18,15.6z M16.7,8.1c0-0.1-0.1-0.1-0.1-0.2c0,0-0.1,0-0.1,0c-0.1,0.1-0.1,0.2-0.2,0.3c0,0,0,0.1,0,0.1
		c0,0,0.1,0,0.1,0C16.5,8.3,16.6,8.2,16.7,8.1z"/>
	<path class="st0" d="M11.1,12.8c0.3-0.1,0.5-0.3,0.6-0.6c0.2-0.3,0.4-0.7,0.5-1c0.1-0.2,0-0.3-0.2-0.3c0,0,0-0.1-0.1-0.1
		c-0.3,0.1-0.4,0.4-0.7,0.6c0,0,0-0.1,0-0.1c-0.1-0.2-0.1-0.2,0.1-0.4c0.2-0.2,0.3-0.4,0.5-0.5c0,0,0.1-0.1,0.1-0.1c0,0,0.1,0,0.1,0
		c0.4,0.4,0.8,0.4,1.3,0.3c0.3,0,0.4-0.2,0.5-0.5c0-0.2,0.2-0.4,0.3-0.6c0.1-0.1,0.2-0.2,0.3-0.4c0.1-0.2,0.2-0.4,0.4-0.6
		c0.1-0.1,0.2-0.1,0.3-0.1c0.1,0.1,0.2,0.3,0.3,0.4c0,0,0,0.1,0,0.1c0,0.1-0.1,0.1-0.2,0.2C15.1,9.4,15,9.5,15,9.7
		c0,0.3-0.1,0.5-0.3,0.7c-0.2,0.2-0.1,0.5,0.1,0.6c0.2,0.1,0.4,0.2,0.7,0.3c0.2,0.1,0.3,0.2,0.4,0.4c0.2,0.5,0.5,1.1,0.5,1.6
		c0,0.3,0,0.7,0,1c0,0.1-0.1,0.1-0.1,0.1c-0.7,0.3-1.1,0.8-1.2,1.6c-0.1,0.7-0.3,1.4-0.7,2c-0.1,0.2-0.2,0.4-0.3,0.5
		c0,0.1-0.1,0.1-0.1,0.2c0,0,0-0.1,0-0.1c-0.1-0.8-0.4-1.6-0.8-2.4C13,16,13,15.6,12.8,15.2c-0.2-0.5-0.3-1-0.5-1.5
		c-0.1-0.2-0.2-0.3-0.3-0.5c-0.1-0.1-0.2-0.1-0.3-0.1c-0.1,0-0.1,0.1-0.2,0.2C11.5,13.2,11.2,13.1,11.1,12.8z"/>
	<path class="st0" d="M13.7,8.8c-0.1,0.2,0,0.4,0.3,0.6c0,0,0,0,0,0c-0.2,0.2-0.4,0.5-0.5,0.8c0,0-0.1,0.1-0.1,0.1
		c-0.3,0-0.5,0-0.8,0c-0.2,0-0.4-0.1-0.5-0.3c-0.1-0.1-0.2-0.1-0.3,0c-0.2,0.2-0.3,0.3-0.5,0.5c-0.1,0.1-0.1,0.1-0.2,0.2
		c-0.2-0.4-0.5-0.6-0.8-0.8c-0.4-0.3-0.7-0.7-1.1-1C9,8.9,8.9,8.6,8.6,8.4C8.5,8.3,8.5,8.1,8.7,8c0.4-0.2,0.7-0.5,1-0.9
		C9.8,7.1,9.9,7,10,6.9c0.2-0.4,0.6-0.6,0.9-0.8c0,0.3-0.1,0.6-0.1,0.9c0,0.2,0.1,0.4,0.2,0.6c0.1,0.1,0.1,0.2,0.2,0.2
		c0,0.1,0.1,0.1,0.1,0.2c0.1-0.2,0.1-0.4-0.1-0.5C11,7.2,10.9,7,10.9,6.7c0-0.2,0.1-0.4,0.1-0.6c0-0.1,0.1-0.2,0.2-0.3
		c0,0,0-0.1,0.1-0.2c0.2-0.1,0.3,0,0.5,0.2c0.3,0.4,0.5,0.8,0.6,1.3c0,0.1,0,0.2,0.1,0.4c0.1-0.1,0.1-0.1,0.2-0.2
		c0.2-0.3,0.4-0.6,0.6-1c0.2-0.3,0.5-0.5,0.8-0.5c0.2,0,0.3-0.1,0.5-0.2c0.2-0.1,0.4-0.2,0.6-0.3c0,0.4-0.1,0.8-0.1,1.3
		c-0.2-0.2-0.5-0.3-0.8-0.2c-0.1,0-0.1,0.1-0.1,0.2c0.3,0,0.7-0.2,0.9,0.2c-0.2,0.2-0.1,0.4-0.1,0.7c0.1,0.2,0.1,0.5,0.1,0.7
		c0,0.1-0.1,0.1-0.1,0.1c-0.2-0.1-0.3,0.1-0.4,0.2c-0.1,0.2-0.2,0.4-0.3,0.5c0,0.1-0.1,0.2-0.1,0.1c-0.1,0-0.2-0.1-0.2-0.2
		C13.8,9,13.8,8.9,13.7,8.8z M11.4,6.3c-0.2,0.2-0.2,0.4-0.1,0.7C11.5,6.8,11.5,6.5,11.4,6.3z M14.3,7.4c0,0,0,0.1,0.1,0.1
		c0,0,0.1,0,0.1-0.1c0.1-0.1,0.1-0.2,0.1-0.3c0,0,0-0.1-0.1-0.1c0,0-0.1,0-0.1,0.1C14.3,7.2,14.3,7.3,14.3,7.4z"/>
	<path class="st0" d="M11.8,13.8c0.1,0.1,0.2,0.2,0.2,0.3c0.1,0.1,0.2,0.2,0.2,0.3c0.4,1,0.8,1.9,1.1,2.9c0.2,0.7,0.4,1.4,0.6,2.1
		c0.2,0.5,0.3,1,0.5,1.5c0.1,0.2,0.1,0.4,0.3,0.6c0,0,0,0.1,0.1,0.1c0.2,0.2,0.3,0.1,0.4-0.1c0.2-0.3,0.3-0.6,0.5-0.9
		c0,0,0-0.1,0.1-0.1c0.1,0.2,0.3,0.4,0.5,0.4c0.5,0.2,1,0.3,1.6,0.5c0.1,0,0.3,0,0.4-0.1c0.1,0,0.2,0,0.4-0.1
		c-0.2,0.2-0.3,0.4-0.4,0.5c-0.2,0.3-0.5,0.6-0.7,0.9c-0.4,0.5-0.9,0.9-1.4,1.3c-0.1,0-0.2,0-0.3,0c-0.2-0.1-0.3-0.2-0.5-0.3
		c-0.8-0.6-1.4-1.4-2-2.2c-0.3-0.4-0.4-0.8-0.6-1.2c-0.3-0.9-0.5-1.8-0.6-2.8c-0.1-0.6-0.1-1.1-0.2-1.7c0-0.2-0.1-0.4-0.2-0.6
		c-0.2-0.4-0.4-0.9-0.6-1.3c0,0,0.1,0,0.2,0c0,0,0-0.1,0-0.1c0.1,0,0.1,0.1,0.2,0.1c0-0.1,0-0.1,0-0.2c0.1,0.1,0.2,0.3,0.3,0.4
		c0,0,0.1,0,0.1,0.1c0,0,0-0.1,0-0.1C11.8,13.9,11.8,13.8,11.8,13.8L11.8,13.8z"/>
	<path class="st0" d="M20.3,19.9c0.2,0.4,0,0.7-0.1,1.1c-0.1,0.7-0.2,1.4-0.3,2c-0.1,0.5-0.3,1-0.7,1.5c-0.2,0.2-0.3,0.2-0.5,0.2
		c-0.3,0-0.6,0-0.9-0.2c-0.5-0.2-1-0.4-1.5-0.7c0,0,0,0,0,0c0.8-0.5,1.3-1.2,1.9-1.9c0.2-0.3,0.4-0.6,0.7-0.9c0,0,0-0.1,0-0.1
		c-0.1,0-0.1,0-0.1,0c-0.3,0.1-0.6,0.2-0.9,0.2c-0.1,0-0.3,0-0.4,0c-0.4-0.1-0.8-0.3-1.2-0.4c-0.1-0.1-0.3-0.2-0.4-0.3
		c-0.1-0.1-0.1-0.1-0.2-0.2c0,0-0.1,0-0.1,0.1c-0.2,0.3-0.3,0.6-0.5,0.9c0,0.1-0.1,0.1-0.1,0.2c-0.3-0.8-0.6-1.7-0.9-2.5
		c0.3-0.1,0.5-0.1,0.8-0.2c0.3-0.1,0.6-0.1,1,0c0.1,0.1,0.3,0,0.4,0.1c0,0,0.1,0,0.1,0c0.5,0.5,1.1,0.9,1.8,1
		c0.5,0.1,1.1,0.1,1.6,0.1C20.1,19.9,20.2,19.9,20.3,19.9z"/>
	<path class="st0" d="M19.4,24.7c0.2-0.3,0.4-0.7,0.6-1c0.2,0.1,0.4,0.1,0.6,0.2c0,0.2-0.1,0.3-0.1,0.5c0,0.2,0,0.3,0.2,0.3
		c0.1,0,0.2,0.1,0.3,0.1c0.1,0.1,0.2,0.2,0.2,0.4c0,0.3,0.1,0.3,0.3,0.2c0,0,0,0,0.1,0c0,0.1,0,0.2-0.1,0.3c-0.1,0.1-0.1,0.2,0,0.3
		c0.1,0.1,0.1,0.1,0,0.2c-0.1,0.1-0.2,0.2-0.3,0.3c-0.1,0.1-0.2,0.2-0.2,0.3c-0.1,0.4-0.4,0.6-0.8,0.7c-0.4,0-0.5,0-0.8-0.3
		c0.1-0.3,0.2-0.6,0.3-0.9c0.1-0.4,0-0.8,0-1.2c0-0.1,0-0.1,0-0.2C19.6,24.8,19.5,24.7,19.4,24.7z"/>
	<path class="st0" d="M7.2,9c1,0.4,1.9,1,2.6,1.9c0.1,0.2,0.3,0.4,0.4,0.6c0.2,0.5,0.5,0.9,0.7,1.3c-0.1-0.1-0.3-0.1-0.5-0.2
		c-0.1,0-0.1-0.1-0.2-0.2c-0.1-0.2-0.3-0.3-0.4-0.5c-0.4-0.6-1-1-1.6-1.3c-0.4-0.2-0.7-0.3-1-0.5C6.9,9.9,6.9,9.8,7,9.5
		C7.1,9.4,7.1,9.2,7.2,9C7.2,9,7.2,9,7.2,9z"/>
	<path class="st0" d="M10.8,12.3c-0.1-0.2-0.2-0.3-0.2-0.4c-0.4-0.8-0.9-1.5-1.6-2.1C8.6,9.5,8.2,9.3,7.8,9.1C7.8,9,7.7,9,7.6,8.9
		C7.7,8.7,7.9,8.5,8,8.3c0.1-0.1,0.2-0.1,0.3,0c0,0.1,0.1,0.1,0.2,0.1C8.7,8.6,8.8,8.8,9,9c0.4,0.6,1,1,1.5,1.4
		c0.2,0.2,0.4,0.4,0.5,0.6c0.2,0.3,0.2,0.6,0,1C10.9,12.1,10.9,12.2,10.8,12.3z"/>
	<path class="st0" d="M11.2,25.7c-0.1,0-0.2,0-0.2,0c-0.2,0-0.5,0-0.7,0c0,0-0.1,0-0.2,0c0,0,0,0,0,0c0.3,0,0.5-0.1,0.8-0.1
		c0.1,0,0.2,0,0.3,0.1c0.4,0.4,0.9,0.7,1.4,0.9c0.1,0.1,0.2,0.1,0.4,0.2c-0.1,0-0.1,0-0.2,0c-0.5,0-1.1,0.1-1.6,0.2
		c-0.3,0.1-0.7,0.1-1,0.2c-0.1,0-0.1,0-0.1-0.1c0-0.4,0-0.7,0-1.1c0.1,0,0.2,0,0.4,0c0.2,0,0.4,0,0.5,0
		C11.1,25.8,11.2,25.8,11.2,25.7C11.2,25.8,11.2,25.7,11.2,25.7z"/>
	<path class="st0" d="M5.5,22.7c0.1,0,0.2,0.1,0.2,0.1c0,0.2,0.1,0.2,0.2,0.3c0.1,0,0.1,0.1,0.2,0.1c0,0,0-0.1,0-0.1
		C6.1,23,6,23,6,22.9c0,0-0.1,0-0.1-0.1c0-0.1-0.1-0.2-0.2-0.3c-0.1,0-0.1-0.1-0.2-0.1c0-0.1-0.1-0.3-0.1-0.5c0-0.1,0-0.1,0-0.2
		c0,0,0-0.1,0.1-0.1c0.1-0.1,0.1-0.2,0.1-0.3c0-0.1-0.2-0.1-0.3-0.1c0.1-0.4,0-0.7-0.2-1.1c0.1,0,0.2,0,0.2,0.1
		c0.5,1.4,1,2.8,1.5,4.2c0,0,0,0.1,0,0.1c-0.1-0.2-0.3-0.4-0.4-0.7c0-0.1,0-0.2,0-0.2c0-0.1,0-0.1-0.1-0.2c0,0-0.1,0.1-0.1,0.1
		c0,0,0,0,0,0c-0.2-0.1-0.3-0.2-0.5-0.3c-0.1-0.1-0.2-0.2-0.2-0.3c0.1,0,0.2,0,0.3,0.1c0.1,0,0.2,0.1,0.2,0.2c0,0,0,0.1,0.1,0.1
		c0,0,0.1,0,0.1,0c0,0,0-0.1,0-0.1c-0.1-0.2-0.1-0.3-0.3-0.4C5.7,23.1,5.6,23,5.5,22.7C5.6,22.8,5.5,22.7,5.5,22.7L5.5,22.7z"/>
	<path class="st0" d="M2.6,22.2c-0.4,0.1-0.4,0.2-0.3,0.3c-0.1,0.1-0.1,0.3-0.1,0.4C2.3,23,2.5,23,2.6,23c0.2-0.1,0.2-0.2,0.2-0.4
		c-0.2,0.1-0.3,0.3-0.6,0.2c0.1-0.2,0.2-0.3,0.5-0.3c0.1,0,0.1,0,0.1,0.1c0,0.1,0,0.1,0,0.2c0,0,0,0.1,0,0.1c0,0,0.1-0.1,0.1-0.1
		c0-0.1,0.1-0.2,0.1-0.3c0-0.1,0.1-0.1,0.1-0.2c0.1-0.1,0.2-0.1,0.2,0c0.1,0.1,0.2,0.2,0.2,0.3c0,0.1,0,0.2,0.1,0.3
		c0,0.1,0,0.2,0,0.3c0,0.1-0.1,0.1-0.1,0.2c0,0.1-0.1,0.1-0.1,0.2c-0.2,0-0.3-0.2-0.5-0.1c0.1,0,0.1-0.1,0.2-0.1c0,0,0,0,0-0.1
		c0,0-0.1,0-0.1,0c-0.2,0.1-0.3,0.2-0.6,0.1c-0.1,0-0.1,0-0.2,0c0,0,0.1-0.1,0.1-0.1c0.2-0.1,0.5-0.2,0.7-0.2c0.1,0,0.1,0,0.2,0
		c0,0,0.1,0,0.1,0c0,0,0.1-0.1,0.1-0.1c0,0-0.1-0.1-0.1-0.1c-0.1,0-0.2,0-0.4,0c-0.1,0-0.3,0.1-0.4,0.2c-0.2,0.1-0.5,0-0.5-0.2
		c-0.1-0.3,0.1-0.7,0.3-0.8C2.5,22.1,2.6,22.1,2.6,22.2C2.6,22.1,2.6,22.1,2.6,22.2z"/>
	<path class="st0" d="M5.2,25.3c-0.3-0.2-0.4-0.4-0.6-0.6c0,0,0-0.1,0-0.2c0.1-0.1,0.2-0.3,0.3-0.4c0,0,0.1,0,0.2,0
		c0.2,0.2,0.3,0.3,0.5,0.5c0,0,0,0.1,0,0.1C5.5,24.9,5.4,25.1,5.2,25.3z"/>
	<path class="st0" d="M4.7,22.4c0.1,0,0.2,0,0.3,0c0.1,0.1,0.1,0.2,0.2,0.4c0,0,0,0.1,0,0.2c-0.4,0-0.8,0-1.2,0
		c0.1-0.3-0.1-0.5-0.3-0.8c-0.2-0.2-0.3-0.5-0.5-0.7c-0.1-0.1,0-0.2,0-0.2c0.1,0.2,0.2,0.3,0.3,0.5c0.1,0.1,0.1,0.2,0.1,0.3
		c0.1,0.2,0.2,0.4,0.4,0.4c0.1,0,0.1,0,0.2,0.1C4.5,22.6,4.5,22.6,4.7,22.4z"/>
	<path class="st0" d="M5.5,22.7c0,0.1-0.1,0.3-0.1,0.5c-0.1,0.1-0.1,0.1,0,0.3c0.1,0.1,0.3,0.2,0.4,0.3C5.9,23.8,6,23.9,6.1,24
		c0,0,0.1,0,0.1,0.1c0,0.3-0.3,0.3-0.5,0.5c-0.2-0.2-0.4-0.3-0.6-0.5c-0.1,0-0.1-0.1-0.2-0.1c0,0-0.1-0.1-0.1-0.1
		c0-0.1,0-0.1,0.1-0.2c0,0,0.1,0,0.1,0.1c0,0.2,0.2,0.2,0.3,0.3c0.1,0.1,0.3,0.2,0.4,0.3c0.1,0.1,0.2,0.1,0.3,0.1
		c-0.2-0.2-0.3-0.4-0.5-0.5c-0.3-0.1-0.3-0.2-0.3-0.4c0-0.1,0.1-0.3,0.1-0.4C5.4,22.8,5.5,22.8,5.5,22.7C5.5,22.7,5.5,22.7,5.5,22.7
		z"/>
	<path class="st0" d="M3.8,23.7c0,0-0.1,0-0.1-0.1c0.1-0.1,0.1-0.2,0.2-0.2c0,0,0,0,0,0c0,0.1,0,0.1-0.1,0.2c-0.1,0.1,0,0.2,0.1,0.2
		c0.1,0,0.2,0.1,0.2,0.1c0,0,0.1,0.1,0.1,0.1c-0.1,0-0.1,0-0.2,0c-0.1,0-0.2-0.1-0.3-0.1c-0.1,0.2-0.1,0.4-0.2,0.6c0,0,0,0-0.1,0
		c0-0.1,0-0.2,0-0.3c0-0.1,0-0.2,0-0.2c-0.1,0-0.1,0.1-0.2,0.2c-0.1,0.1-0.2,0.2-0.3,0.4c-0.1-0.2,0-0.3,0.2-0.4
		c0.1,0,0.1-0.1,0.2-0.2c-0.1,0-0.1,0-0.2-0.1c0,0-0.1-0.1-0.1-0.1c0-0.1,0-0.1,0-0.2c0.1,0,0.1,0,0.2,0c0.1,0,0.1,0,0.1,0.1
		C3.7,23.9,3.7,23.9,3.8,23.7z"/>
	<path class="st0" d="M18.2,11c-0.1-0.1-0.2-0.2-0.3-0.3c0-0.3,0.1-0.6,0.1-0.9c0.3,0.2,0.5,0.5,0.8,0.8C18.7,10.9,18.5,11,18.2,11z
		 M18.1,10.2c0,0.2-0.1,0.4,0,0.6C18.3,10.6,18.3,10.4,18.1,10.2z"/>
	<path class="st0" d="M19.4,24.9c0.3,0.9,0.2,1.7-0.3,2.4c0-0.3,0.1-0.5,0.1-0.8c0.1-0.3,0.1-0.6,0.1-1c0-0.1,0-0.3,0-0.4
		C19.3,25,19.3,25,19.4,24.9C19.4,24.9,19.4,24.9,19.4,24.9z"/>
	<path class="st0" d="M2.8,25.9c0.3,0,0.5,0,0.6-0.2c0,0,0,0,0-0.1c-0.1,0-0.1,0-0.2,0c-0.4,0.1-0.5,0.1-0.7-0.2
		c0-0.1-0.1-0.1-0.2-0.2c0,0-0.1-0.1-0.1-0.1c0-0.2-0.1-0.2-0.2-0.3c0,0-0.1-0.1-0.1-0.1c0,0,0.1-0.1,0.1-0.1c0.1,0,0.1,0,0.1,0.1
		c0,0,0,0,0,0c0.2,0.3,0.3,0.6,0.6,0.8c0.2,0.1,0.3,0.1,0.5,0c0,0,0,0,0.1-0.1c0.1,0.1,0.1,0.2,0.2,0.3C3.5,26.1,3.2,26,2.9,26
		C2.9,26,2.8,25.9,2.8,25.9z"/>
	<path class="st0" d="M2.5,21.9c0-0.2,0.2-0.5,0.5-0.6C3,21.4,3,21.6,3,21.7c0.1,0.1,0.2,0.2,0.2,0.3c-0.2,0-0.4,0.1-0.7,0
		C2.6,21.9,2.5,21.9,2.5,21.9z"/>
	<path class="st0" d="M4.7,22.1c0,0.1,0,0.2-0.2,0.3c-0.2,0-0.6-0.1-0.6-0.3c0,0,0-0.1,0-0.1c0.1-0.1,0.2-0.2,0.3-0.2
		C4.2,22,4.2,22.1,4.7,22.1z"/>
	<path class="st0" d="M21.7,26.3c0,0.1-0.1,0.3-0.1,0.4c0,0.1-0.1,0.2-0.1,0.4c0,0.1-0.1,0.2-0.2,0.2c0-0.1,0-0.3-0.1-0.4
		c0,0-0.1,0-0.1,0C21.2,26.6,21.5,26.6,21.7,26.3C21.6,26.3,21.7,26.3,21.7,26.3z"/>
	<path class="st0" d="M4.8,20.5c0,0.1,0.1,0.1,0.1,0.2c-0.1,0-0.1,0-0.2,0c-0.1,0-0.1,0.1-0.1,0.2c0,0.1-0.1,0.3-0.1,0.5
		c0,0.1-0.1,0.1-0.2,0.1c-0.2,0-0.3-0.1-0.4-0.3c0.2,0,0.3-0.1,0.4-0.2C4.5,20.7,4.6,20.6,4.8,20.5z"/>
	<path class="st0" d="M5.1,23c0,0.1,0,0.1-0.1,0.2c0,0.1-0.1,0.2-0.2,0.3c-0.1,0.1-0.2,0.2-0.3,0.3c-0.2-0.2-0.4-0.4-0.7-0.6
		c0.3,0.1,0.6,0.2,0.9,0.1c0.1,0,0.2,0,0.2-0.2C5,23,5.1,23,5.1,23z"/>
	<path class="st0" d="M2.8,25c0,0,0,0.1,0,0.1C3,25.1,3,24.8,3.2,25c-0.1,0.1-0.2,0.1-0.3,0.1c0.2,0.2,0.3,0.1,0.6-0.2
		c0.1,0.2,0.1,0.2-0.1,0.4c-0.2,0.2-0.3,0.2-0.5,0.1C2.7,25.2,2.7,25.2,2.8,25z"/>
	<path class="st0" d="M5,20.2c-0.1,0-0.2,0-0.4-0.1c-0.1,0-0.2,0-0.3,0.1c-0.1,0.1-0.1,0.2-0.3,0.2c-0.1,0-0.1,0.1-0.2,0.1
		c-0.1,0.1-0.1,0.1-0.2,0.2c0.1-0.1,0.1-0.3,0.2-0.4c0-0.1,0.1-0.1,0.2-0.1c0.2,0,0.3,0,0.4-0.2C4.8,19.8,4.9,19.9,5,20.2
		C5,20.2,5,20.2,5,20.2z"/>
	<path class="st0" d="M3.9,25.9c-0.1,0.1-0.3,0.2-0.4,0.3C3.5,26.1,3.7,25.9,3.9,25.9c0.1,0,0.2-0.1,0.2-0.2c0,0,0.1-0.1,0.1-0.1
		c0,0,0,0,0,0c-0.1,0.1-0.1,0.3,0,0.4c0,0,0,0.1,0,0.2c0,0,0,0,0,0c-0.1-0.1-0.1-0.2-0.2-0.3C4,26,4,26.1,3.9,26.2
		c0,0.1-0.1,0.2-0.2,0.2c0,0,0,0-0.1,0c0-0.1,0-0.1,0.1-0.2c0-0.1,0.1-0.1,0.1-0.2C3.9,26,3.9,26,3.9,25.9z"/>
	<path class="st0" d="M4.8,24c-0.1,0.2-0.2,0.3-0.3,0.5c0,0,0,0-0.1,0c-0.3,0-0.5,0.1-0.7,0.3c0,0,0,0,0,0c0-0.1,0.1-0.3,0.3-0.3
		c0.2,0,0.3-0.1,0.5-0.1c0.2-0.1,0.3-0.2,0.2-0.5C4.7,23.9,4.7,24,4.8,24z"/>
	<path class="st0" d="M4.1,26.6c-0.3,0.3-0.5,0.2-0.8,0c0.1-0.1,0.1-0.2,0.2-0.3c0.1,0.2,0.2,0.2,0.3,0.2C3.9,26.5,4,26.6,4.1,26.6z
		"/>
	<path class="st0" d="M1.8,22.4c-0.4,0-0.3,0.4-0.4,0.6c0-0.1,0-0.1,0-0.2C1.5,22.4,1.7,22.1,2,22c0.1,0,0.2-0.1,0.3-0.1
		c0,0,0.1,0,0.1,0.1c-0.1,0.1-0.2,0.2-0.3,0.3c0,0,0,0,0,0C1.9,22.1,1.8,22.3,1.8,22.4z"/>
	<path class="st0" d="M21.1,24.7c-0.1-0.1-0.3-0.1-0.4-0.2c0,0-0.1-0.1-0.1-0.2c0-0.1,0-0.2,0.1-0.2c0.1,0,0.2,0.1,0.2,0.1
		C21,24.4,21.1,24.6,21.1,24.7z"/>
	<path class="st0" d="M5.1,25.5c-0.1,0-0.2,0-0.2,0c-0.1-0.1-0.3-0.3-0.4-0.4c-0.1-0.1-0.1-0.1-0.1-0.2c0,0,0.1,0,0.1-0.1
		C4.7,25,4.9,25.2,5.1,25.5C5.1,25.5,5.1,25.5,5.1,25.5z"/>
	<path class="st0" d="M14.7,21.2c-0.3-0.6-0.4-1.3-0.7-2c0,0,0,0,0,0C14.3,19.9,14.6,20.5,14.7,21.2C14.8,21.2,14.7,21.2,14.7,21.2z
		"/>
	<path class="st0" d="M2.1,25.6C2,25.6,2,25.6,2.1,25.6c-0.1,0-0.2-0.1-0.2-0.2c0-0.1,0.1-0.2,0.1-0.2c0-0.1,0-0.2-0.1-0.2
		c-0.1,0-0.1-0.1-0.2-0.1c0,0,0-0.1,0.1-0.1c0,0,0.1-0.1,0.1-0.1C1.9,24.9,2,25,2.1,25C2,25.1,2,25.2,2,25.3C2,25.4,2,25.5,2.1,25.6
		z"/>
	<path class="st0" d="M12.3,14.1c-0.2-0.3-0.6-0.4-0.5-0.9C12.1,13.5,12.2,13.8,12.3,14.1z"/>
	<path class="st0" d="M2.2,25.2c0,0.4,0.3,0.6,0.6,0.8c-0.3,0-0.5-0.1-0.5-0.3c0-0.1-0.1-0.1-0.1-0.2C2.1,25.3,2.1,25.3,2.2,25.2z"
		/>
	<path class="st0" d="M6.5,26.7c0.1-0.5,0.1-1,0.2-1.5c0.1,0,0.1,0.1,0.1,0.2C6.7,25.8,6.6,26.3,6.5,26.7
		C6.5,26.7,6.5,26.7,6.5,26.7z"/>
	<path class="st0" d="M4.7,21c0,0.2,0,0.4,0,0.6c-0.2,0-0.3-0.1-0.4-0.1c0,0,0,0,0.1,0c0.2,0,0.3,0,0.3-0.3
		C4.6,21.2,4.7,21.1,4.7,21C4.7,21,4.7,21,4.7,21z"/>
	<path class="st0" d="M6.2,24.4C6.2,24.4,6.2,24.4,6.2,24.4c0-0.1,0.1-0.1,0.1-0.1c0.2,0.2,0.3,0.5,0.4,0.7c0,0,0,0,0,0
		C6.5,24.8,6.4,24.6,6.2,24.4z"/>
	<path class="st0" d="M2,23.9c-0.5,0-0.7-0.2-0.6-0.5C1.4,23.8,1.8,23.7,2,23.9z"/>
	<path class="st0" d="M2.8,24.2c-0.1,0.1-0.3,0.2-0.4,0.3c-0.1,0-0.2,0-0.3,0C2.2,24.3,2.6,24.1,2.8,24.2z"/>
	<path class="st0" d="M5.4,21.6c-0.1,0.2-0.2,0.4-0.3,0.5c-0.1,0-0.1,0.1-0.2,0.1C5,21.9,5.2,21.6,5.4,21.6z"/>
	<path class="st0" d="M2.9,26.6c-0.2,0-0.5-0.2-0.5-0.3c0.2,0.1,0.3,0.1,0.5,0.2C2.9,26.5,2.9,26.5,2.9,26.6z"/>
	<path class="st0" d="M5.4,25.4c0.1,0.1,0.1,0.2,0,0.3c-0.1,0.1-0.2,0.1-0.3,0C5.3,25.5,5.3,25.5,5.4,25.4z"/>
	<path class="st0" d="M3.4,21.3c0-0.2,0.1-0.2,0.2-0.3c0.1,0.1,0.1,0.1,0.2,0.2C3.7,21.3,3.6,21.3,3.4,21.3z"/>
	<path class="st0" d="M5.6,25.2c0.1,0.1,0.1,0.3,0.2,0.4c0.1,0.2,0,0.2-0.2,0.2C5.8,25.6,5.6,25.4,5.6,25.2
		C5.5,25.2,5.5,25.2,5.6,25.2z"/>
	<path class="st0" d="M3.5,20.7c-0.2-0.1-0.3-0.2-0.4-0.3c0,0,0-0.1-0.1-0.2c0.1,0,0.1,0,0.1,0c0.1,0.1,0.2,0.2,0.3,0.3
		C3.5,20.5,3.5,20.6,3.5,20.7z"/>
	<path class="st0" d="M1.6,23.5c0.2,0,0.4,0.1,0.5,0.2c0.1,0.1,0.1,0.1,0.1,0.2C2.1,23.7,1.8,23.6,1.6,23.5z"/>
	<path class="st0" d="M11.8,13.8c-0.1-0.1-0.1-0.1-0.2-0.2c-0.1-0.1-0.3-0.3-0.4-0.4C11.5,13.3,11.7,13.5,11.8,13.8
		C11.8,13.8,11.8,13.8,11.8,13.8z"/>
	<path class="st0" d="M2.1,21.4c0.2,0,0.3,0,0.4,0c-0.1,0.1-0.1,0.2-0.2,0.3C2.3,21.6,2.2,21.5,2.1,21.4z"/>
	<path class="st0" d="M2.3,23.6c0.1,0,0.1,0,0.2,0c0,0,0.1,0,0.1,0.1c0,0,0,0.1-0.1,0.1c0,0-0.1,0.1-0.1,0.1
		C2.3,23.8,2.3,23.7,2.3,23.6z"/>
	<path class="st0" d="M6.3,25.3C6.1,25.1,6,25,5.9,24.8c0,0,0-0.1,0-0.1c0,0,0,0,0,0c0,0,0,0,0.1,0.1C6,24.9,6.1,24.9,6.1,25
		C6.2,25.1,6.3,25.2,6.3,25.3C6.3,25.3,6.3,25.3,6.3,25.3z"/>
	<path class="st0" d="M3.3,26.1c0.1,0.2-0.1,0.5-0.2,0.5C3.1,26.5,3.2,26.3,3.3,26.1z"/>
	<path class="st0" d="M4.4,22c0.1-0.2,0.2-0.2,0.4,0C4.7,21.9,4.5,22,4.4,22z"/>
	<path class="st0" d="M5.8,25.3c0.2,0.2,0.2,0.5,0,0.6C6,25.7,5.9,25.5,5.8,25.3z"/>
	<path class="st0" d="M4.1,20.6c0,0,0.1,0,0.1,0C4,20.9,3.9,21,3.8,21C3.9,20.8,4,20.7,4.1,20.6z"/>
	<path class="st0" d="M21.3,25c0.1,0.1,0.2,0.2,0.3,0.3c-0.1,0-0.1,0-0.2,0.1C21.3,25.2,21.3,25.1,21.3,25C21.3,25,21.3,25,21.3,25z
		"/>
	<path class="st0" d="M1.8,23c-0.1,0.1-0.1,0.1-0.2,0.2c0-0.2,0-0.3,0-0.4C1.7,22.9,1.7,23,1.8,23z"/>
	<path class="st0" d="M5,21.1c0,0.2,0,0.3,0.2,0.3c-0.1,0.1-0.1,0.1-0.2,0.2C5,21.5,5,21.3,5,21.2C4.9,21.2,5,21.1,5,21.1
		C5,21.1,5,21.1,5,21.1z"/>
	<path class="st0" d="M3.6,21.5c0.1-0.1,0.3-0.1,0.5,0.1C3.9,21.5,3.8,21.5,3.6,21.5z"/>
	<path class="st0" d="M5,20.4c0.1,0.2,0.1,0.3,0.2,0.5c0,0,0,0-0.1,0C5.1,20.7,5,20.6,5,20.4C5,20.4,5,20.4,5,20.4z"/>
	<path class="st0" d="M4.1,26.2c0.1,0.1,0.1,0.1,0.2,0.2c-0.1,0.1-0.2,0.1-0.2,0C4,26.4,4,26.3,4.1,26.2z"/>
	<path class="st0" d="M2.9,24.3c-0.1,0.2-0.2,0.3-0.3,0.4c0,0,0,0,0,0C2.6,24.5,2.7,24.4,2.9,24.3z"/>
	<path class="st0" d="M18,11.1c0,0.1,0,0.2,0,0.3c0,0,0,0,0,0c0,0-0.1-0.1-0.1-0.1C17.8,11.2,17.9,11.1,18,11.1
		C17.9,11.1,17.9,11.1,18,11.1z"/>
	<path class="st0" d="M1.7,22.6c0.1,0.1,0.1,0.2,0.2,0.3c0,0,0,0,0,0C1.8,22.8,1.7,22.7,1.7,22.6z"/>
	<path class="st0" d="M2.1,26.7c0-0.1,0-0.2,0.1-0.3c0,0,0,0-0.1-0.1c0.1,0,0.1,0,0.2,0C2.2,26.5,2.3,26.7,2.1,26.7
		C2.1,26.8,2.1,26.8,2.1,26.7z"/>
	<path class="st0" d="M3.8,21.9c-0.1-0.1-0.1-0.1-0.2-0.2c0.1,0,0.2,0,0.3,0C3.9,21.8,3.9,21.8,3.8,21.9z"/>
	<path class="st0" d="M2,23.2c0.2,0.1,0.1,0.2,0.1,0.3C1.9,23.4,2.1,23.3,2,23.2z"/>
	<path class="st0" d="M2.8,26.2c0.1,0,0.2,0,0.3,0C3,26.4,2.9,26.3,2.8,26.2z"/>
	<path class="st0" d="M3.4,24.9c-0.1,0-0.2-0.1-0.3-0.1c0.1,0,0.1-0.1,0.1-0.1C3.3,24.7,3.4,24.8,3.4,24.9z"/>
	<path class="st0" d="M3.9,24.4c0-0.1,0-0.1,0-0.2c0.1,0,0.2,0.1,0.3,0.1c0,0,0,0,0,0C4.1,24.3,4,24.3,3.9,24.4z"/>
	<path class="st0" d="M2.2,20.5c0.1,0,0.2,0.1,0.2,0.1C2.3,20.7,2.2,20.7,2.2,20.5z"/>
	<path class="st0" d="M2.8,21c-0.1,0-0.2-0.1-0.3-0.1C2.7,20.7,2.8,20.9,2.8,21z"/>
	<path class="st0" d="M2.3,21.2c-0.1,0-0.2,0.1-0.3,0C2,21.2,2.1,21.2,2.3,21.2z"/>
	<path class="st0" d="M2.9,22.2c0.1,0,0.2,0,0.3,0c-0.1,0.1-0.1,0.1-0.1,0.2C3,22.3,3,22.2,2.9,22.2z"/>
	<path class="st0" d="M2.9,24.1C2.9,24,2.9,24,3,23.9C3,24,3,24,3.1,24.1C3,24.1,2.9,24.1,2.9,24.1z"/>
	<path d="M18,15.6c-0.1,0.1-0.3,0.1-0.4,0.1c-0.3-0.1-0.6-0.2-0.8-0.4c-0.1-0.1-0.1-0.1-0.1-0.2c0,0,0,0,0.1-0.1
		c0.1,0,0.1,0.1,0.2,0.1c0.1,0.1,0.2,0.1,0.3,0.2c0.2,0.1,0.4,0.2,0.7,0.2C17.8,15.6,17.9,15.6,18,15.6z"/>
	<path d="M16.7,8.1c-0.1,0.1-0.1,0.2-0.2,0.3c0,0-0.1,0-0.1,0c0,0-0.1-0.1,0-0.1c0-0.1,0.1-0.2,0.2-0.3c0,0,0.1,0,0.1,0
		C16.6,8,16.6,8,16.7,8.1z"/>
	<path d="M11.4,6.3c0.1,0.3,0.1,0.6-0.1,0.7C11.2,6.7,11.2,6.4,11.4,6.3z"/>
	<path d="M14.3,7.4c0-0.1,0-0.2,0.1-0.3c0,0,0.1-0.1,0.1-0.1c0,0,0.1,0.1,0.1,0.1c0,0.1-0.1,0.2-0.1,0.3c0,0-0.1,0.1-0.1,0.1
		C14.3,7.5,14.3,7.4,14.3,7.4z"/>
	<path d="M18.1,10.2c0.2,0.1,0.2,0.4,0,0.6C18,10.6,18.1,10.4,18.1,10.2z"/>
</g>
</svg>
