<?xml version="1.0" encoding="utf-8"?>
<!-- Generator: Adobe Illustrator 28.1.0, SVG Export Plug-In . SVG Version: 6.00 Build 0)  -->
<svg version="1.1" id="Layer_1" xmlns="http://www.w3.org/2000/svg" xmlns:xlink="http://www.w3.org/1999/xlink" x="0px" y="0px"
	 viewBox="0 0 500 500" style="enable-background:new 0 0 500 500;" xml:space="preserve">
<style type="text/css">
	.st0{display:none;fill:#FAE100;}
	.st1{fill:#371D1E;}
	.st2{clip-path:url(#SVGID_00000072959525650221610520000009766039513837580731_);fill:#FAE100;}
	.st3{clip-path:url(#SVGID_00000160883602012585282620000017349699849307028649_);fill:#FAE100;}
	.st4{clip-path:url(#SVGID_00000023995525948225807010000011722723724182763418_);fill:#FAE100;}
	.st5{clip-path:url(#SVGID_00000116206083113403697540000012291766984975412634_);fill:#FAE100;}
</style>
<g>
	<path class="st0" d="M475.1,375.3c0,55.5-44.8,100.5-100,100.5H125.8c-55.2,0-100-45-100-100.5V124.5C25.8,69,70.6,24,125.8,24
		h249.4c55.2,0,100,45,100,100.5V375.3z"/>
	<path class="st1" d="M249,109.1c-89.2,0-161.6,57.2-161.6,127.7c0,45.9,30.6,86.2,76.7,108.7c-3.4,12.6-12.2,45.7-14,52.8
		c-2.2,8.8,3.2,8.7,6.8,6.3c2.8-1.9,44.3-30.1,62.2-42.3c9.7,1.4,19.7,2.2,30,2.2c89.2,0,161.6-57.2,161.6-127.7
		C410.6,166.2,338.3,109.1,249,109.1"/>
	<g>
		<g>
			<g>
				<defs>
					<path id="SVGID_1_" d="M136.3,213.3h16.6c0,0,0.1,45.7,0,56.3c0,7.8,17.3,7.9,17.3,0.1l0.1-55.8c0,0,5.6,0,16.5,0
						c10.3,0,10.3-16.3,0-16.3c-11.6,0-50.6-0.3-50.6-0.3C126.5,197.4,126.6,213.3,136.3,213.3"/>
				</defs>
				<clipPath id="SVGID_00000118356392883401862120000011662233284384948867_">
					<use xlink:href="#SVGID_1_"  style="overflow:visible;"/>
				</clipPath>
			</g>
			<g>
				<defs>
					<path id="SVGID_00000146497913958948989640000009492876065187419553_" d="M136.3,213.3h16.6c0,0,0.1,45.7,0,56.3
						c0,7.8,17.3,7.9,17.3,0.1l0.1-55.8c0,0,5.6,0,16.5,0c10.3,0,10.3-16.3,0-16.3c-11.6,0-50.6-0.3-50.6-0.3
						C126.5,197.4,126.6,213.3,136.3,213.3"/>
				</defs>
				<use xlink:href="#SVGID_00000146497913958948989640000009492876065187419553_"  style="overflow:visible;fill:#FAE100;"/>
				<clipPath id="SVGID_00000042001974142570885250000017534994608757339534_">
					<use xlink:href="#SVGID_00000146497913958948989640000009492876065187419553_"  style="overflow:visible;"/>
				</clipPath>
				
					<rect x="126.5" y="197.3" style="clip-path:url(#SVGID_00000042001974142570885250000017534994608757339534_);fill:#FAE100;" width="70.7" height="80.2"/>
			</g>
			<g>
				<defs>
					<path id="SVGID_00000075132271011146254390000010209132038989998008_" d="M136.3,213.3h16.6c0,0,0.1,45.7,0,56.3
						c0,7.8,17.3,7.9,17.3,0.1l0.1-55.8c0,0,5.6,0,16.5,0c10.3,0,10.3-16.3,0-16.3c-11.6,0-50.6-0.3-50.6-0.3
						C126.5,197.4,126.6,213.3,136.3,213.3"/>
				</defs>
				<clipPath id="SVGID_00000010268496694244210220000016239650632300244410_">
					<use xlink:href="#SVGID_00000075132271011146254390000010209132038989998008_"  style="overflow:visible;"/>
				</clipPath>
			</g>
		</g>
		<g>
			<g>
				<defs>
					<path id="SVGID_00000076590325263382006130000011377819021822921354_" d="M215.9,216.2l9.3,29h-19.3L215.9,216.2z M205.5,202.7
						c-4.1,9-18.9,51.6-23.8,62.9c-3.6,8.2,11.8,14.8,15.3,6.7l3.3-11.6h30.4c0,0-1,0.5,3,11.1c3.3,8.6,19.1,2.6,15.8-6
						c-4.7-12.3-20.8-56.8-23.8-63c-1.4-2.9-6.2-5-11-5C211,197.7,207.2,199.1,205.5,202.7"/>
				</defs>
				<clipPath id="SVGID_00000039841555505942073510000017629316528991959445_">
					<use xlink:href="#SVGID_00000076590325263382006130000011377819021822921354_"  style="overflow:visible;"/>
				</clipPath>
			</g>
			<g>
				<defs>
					<path id="SVGID_00000139990387191700637340000016019676375695978930_" d="M215.9,216.2l9.3,29h-19.3L215.9,216.2z M205.5,202.7
						c-4.1,9-18.9,51.6-23.8,62.9c-3.6,8.2,11.8,14.8,15.3,6.7l3.3-11.6h30.4c0,0-1,0.5,3,11.1c3.3,8.6,19.1,2.6,15.8-6
						c-4.7-12.3-20.8-56.8-23.8-63c-1.4-2.9-6.2-5-11-5C211,197.7,207.2,199.1,205.5,202.7"/>
				</defs>
				<use xlink:href="#SVGID_00000139990387191700637340000016019676375695978930_"  style="overflow:visible;fill:#FAE100;"/>
				<clipPath id="SVGID_00000172440528972565966210000005138107906068226470_">
					<use xlink:href="#SVGID_00000139990387191700637340000016019676375695978930_"  style="overflow:visible;"/>
				</clipPath>
				
					<rect x="178.2" y="197.7" style="clip-path:url(#SVGID_00000172440528972565966210000005138107906068226470_);fill:#FAE100;" width="74.7" height="82.7"/>
			</g>
			<g>
				<defs>
					<path id="SVGID_00000134936082569588493980000004710312296815571868_" d="M215.9,216.2l9.3,29h-19.3L215.9,216.2z M205.5,202.7
						c-4.1,9-18.9,51.6-23.8,62.9c-3.6,8.2,11.8,14.8,15.3,6.7l3.3-11.6h30.4c0,0-1,0.5,3,11.1c3.3,8.6,19.1,2.6,15.8-6
						c-4.7-12.3-20.8-56.8-23.8-63c-1.4-2.9-6.2-5-11-5C211,197.7,207.2,199.1,205.5,202.7"/>
				</defs>
				<clipPath id="SVGID_00000060021274994517054990000010035678652342928567_">
					<use xlink:href="#SVGID_00000134936082569588493980000004710312296815571868_"  style="overflow:visible;"/>
				</clipPath>
			</g>
		</g>
		<g>
			<g>
				<defs>
					<path id="SVGID_00000114753737330179365130000016737454243655430552_" d="M255.5,205.3c0,14.5,0.1,61.1,0.1,61.1
						s-1.3,9.3,6.6,9.3c7.9,0,25.6-0.1,33.4-0.1c7.8,0,7.8-16.6,0-16.6c-7.8,0-22.1-0.1-22.1-0.1s0.1-43.1,0-53.6
						c0-5.1-4.5-7.6-9-7.6C259.9,197.7,255.4,200.2,255.5,205.3"/>
				</defs>
				<clipPath id="SVGID_00000062911935451739550050000018273204645401676932_">
					<use xlink:href="#SVGID_00000114753737330179365130000016737454243655430552_"  style="overflow:visible;"/>
				</clipPath>
			</g>
			<g>
				<defs>
					<path id="SVGID_00000106145210704482076580000008320311747086612879_" d="M255.5,205.3c0,14.5,0.1,61.1,0.1,61.1
						s-1.3,9.3,6.6,9.3c7.9,0,25.6-0.1,33.4-0.1c7.8,0,7.8-16.6,0-16.6c-7.8,0-22.1-0.1-22.1-0.1s0.1-43.1,0-53.6
						c0-5.1-4.5-7.6-9-7.6C259.9,197.7,255.4,200.2,255.5,205.3"/>
				</defs>
				<use xlink:href="#SVGID_00000106145210704482076580000008320311747086612879_"  style="overflow:visible;fill:#FAE100;"/>
				<clipPath id="SVGID_00000129888626166455486310000003943728825562417590_">
					<use xlink:href="#SVGID_00000106145210704482076580000008320311747086612879_"  style="overflow:visible;"/>
				</clipPath>
				
					<rect x="254.2" y="197.7" style="clip-path:url(#SVGID_00000129888626166455486310000003943728825562417590_);fill:#FAE100;" width="49.2" height="78"/>
			</g>
			<g>
				<defs>
					<path id="SVGID_00000060024695373866093140000016533971812792330880_" d="M255.5,205.3c0,14.5,0.1,61.1,0.1,61.1
						s-1.3,9.3,6.6,9.3c7.9,0,25.6-0.1,33.4-0.1c7.8,0,7.8-16.6,0-16.6c-7.8,0-22.1-0.1-22.1-0.1s0.1-43.1,0-53.6
						c0-5.1-4.5-7.6-9-7.6C259.9,197.7,255.4,200.2,255.5,205.3"/>
				</defs>
				<clipPath id="SVGID_00000044868440080819310230000002029653240787671957_">
					<use xlink:href="#SVGID_00000060024695373866093140000016533971812792330880_"  style="overflow:visible;"/>
				</clipPath>
			</g>
		</g>
		<g>
			<g>
				<defs>
					<path id="SVGID_00000142167773729240583590000011406931760561445258_" d="M305.4,203c0.2,6.3-0.2,63.7-0.2,68
						c0,6.7,17.1,6.7,17.1,0c0-7.8,0-22.6,0-22.6l5-4l21.9,29.9c4.4,5.8,18.4-4.7,14-10.6l-23.3-30.7c0,0,15.8-17.1,22-23.3
						c3.6-3.6-7.6-14.9-11.3-11.3c-3.5,3.5-28.3,28.3-28.3,28.3s0.2-15.6,0-24.2c-0.1-3.3-4.1-4.8-8.2-4.8
						C309.8,197.7,305.3,199.5,305.4,203"/>
				</defs>
				<clipPath id="SVGID_00000148651041976935370040000013322106057311341190_">
					<use xlink:href="#SVGID_00000142167773729240583590000011406931760561445258_"  style="overflow:visible;"/>
				</clipPath>
			</g>
			<g>
				<defs>
					<path id="SVGID_00000140704253643325042900000006700795451762477185_" d="M305.4,203c0.2,6.3-0.2,63.7-0.2,68
						c0,6.7,17.1,6.7,17.1,0c0-7.8,0-22.6,0-22.6l5-4l21.9,29.9c4.4,5.8,18.4-4.7,14-10.6l-23.3-30.7c0,0,15.8-17.1,22-23.3
						c3.6-3.6-7.6-14.9-11.3-11.3c-3.5,3.5-28.3,28.3-28.3,28.3s0.2-15.6,0-24.2c-0.1-3.3-4.1-4.8-8.2-4.8
						C309.8,197.7,305.3,199.5,305.4,203"/>
				</defs>
				<use xlink:href="#SVGID_00000140704253643325042900000006700795451762477185_"  style="overflow:visible;fill:#FAE100;"/>
				<clipPath id="SVGID_00000133488396294769475490000006917651176826767250_">
					<use xlink:href="#SVGID_00000140704253643325042900000006700795451762477185_"  style="overflow:visible;"/>
				</clipPath>
				
					<rect x="305.2" y="194.8" style="clip-path:url(#SVGID_00000133488396294769475490000006917651176826767250_);fill:#FAE100;" width="62.4" height="85.3"/>
			</g>
			<g>
				<defs>
					<path id="SVGID_00000065785582242658428430000002498229519852185744_" d="M305.4,203c0.2,6.3-0.2,63.7-0.2,68
						c0,6.7,17.1,6.7,17.1,0c0-7.8,0-22.6,0-22.6l5-4l21.9,29.9c4.4,5.8,18.4-4.7,14-10.6l-23.3-30.7c0,0,15.8-17.1,22-23.3
						c3.6-3.6-7.6-14.9-11.3-11.3c-3.5,3.5-28.3,28.3-28.3,28.3s0.2-15.6,0-24.2c-0.1-3.3-4.1-4.8-8.2-4.8
						C309.8,197.7,305.3,199.5,305.4,203"/>
				</defs>
				<clipPath id="SVGID_00000017482223792105378970000004733018591798498224_">
					<use xlink:href="#SVGID_00000065785582242658428430000002498229519852185744_"  style="overflow:visible;"/>
				</clipPath>
			</g>
		</g>
	</g>
</g>
</svg>
